<svg width="1061" height="414" viewBox="0 0 1061 414" fill="none" xmlns="http://www.w3.org/2000/svg">
<path d="M0.753607 252.47C2.25576 250.125 4.8858 244.655 6.01368 242.702C7.89517 239.575 12.0274 238.794 16.1596 241.529C16.1596 241.529 32.3192 255.204 51.483 255.204C66.889 255.204 75.907 246.998 75.907 236.449C75.907 222.775 64.6332 216.523 42.8392 205.192C22.9217 195.032 0 181.36 0 154.79C0 138.379 12.7759 114.157 47.725 114.157C67.2682 114.157 82.2949 121.188 89.4364 126.268C92.82 128.613 93.948 134.083 91.6923 138.379L88.6828 144.632C86.4322 148.929 81.167 150.101 77.7884 148.147C77.7884 148.147 61.6289 138.771 47.725 138.771C30.817 138.771 26.3055 147.759 26.3055 154.4C26.3055 167.292 38.707 173.153 54.113 180.968C80.0442 193.862 103.34 205.974 103.34 234.106C103.34 256.766 82.2949 278.256 51.483 278.256C26.3055 278.256 10.8995 267.316 2.63004 260.674C0.753607 259.112 -0.374274 255.204 0.753607 252.47Z" fill="#003421"/>
<path d="M181.488 8.27347C181.488 4.36617 184.871 0.847992 188.629 0.847992H200.277C204.036 0.847992 207.419 4.36617 207.419 8.27347V177.453L271.299 122.753C274.308 120.016 277.312 118.062 280.316 118.062H300.608C307.001 118.062 306.622 125.488 303.992 127.831L232.596 187.222L315.639 264.582C318.649 267.316 318.269 274.35 311.882 274.35H291.216C287.832 274.35 285.202 272.395 283.7 271.223L207.419 195.817V266.927C207.419 270.835 204.036 274.35 200.277 274.35H188.629C184.871 274.35 181.488 270.835 181.488 266.927V8.27347Z" fill="#003421"/>
<path d="M593.311 125.488C593.311 121.58 596.695 118.062 600.452 118.062H607.589C610.598 118.062 613.228 120.016 613.977 123.534L616.986 134.864C616.986 134.864 630.889 114.158 662.076 114.158C673.349 114.158 692.139 116.111 688.382 127.05L683.875 140.334C681.993 145.413 678.61 145.413 674.857 143.851C671.474 142.287 665.834 140.725 660.2 140.725C631.639 140.725 619.242 162.604 619.242 162.604V266.927C619.242 270.835 615.858 274.35 612.101 274.35H600.452C596.695 274.35 593.311 270.835 593.311 266.927V125.488Z" fill="#003421"/>
<path d="M756.395 125.488C756.395 121.58 759.777 118.062 763.535 118.062H770.671C774.056 118.062 775.936 119.627 776.686 122.753L780.07 134.864C780.07 134.864 797.731 114.158 828.917 114.158C851.09 114.158 867.25 123.142 877.017 139.552C878.897 137.991 902.947 114.158 933.011 114.158C976.599 114.158 991.257 143.851 991.257 184.485V266.927C991.257 270.835 987.872 274.35 984.115 274.35H972.087C968.335 274.35 964.95 270.835 964.95 266.927V184.485C964.95 155.182 952.923 140.334 931.129 140.334C906.706 140.334 890.546 157.135 885.286 162.216C886.414 168.857 887.163 176.28 887.163 184.485V266.927C887.163 270.835 883.784 274.35 880.026 274.35H867.998C864.241 274.35 860.862 270.835 860.862 266.927V184.485C860.862 154.79 848.086 140.334 825.16 140.334C798.48 140.334 782.325 162.604 782.325 162.604V266.927C782.325 270.835 778.941 274.35 775.183 274.35H763.535C759.777 274.35 756.395 270.835 756.395 266.927V125.488Z" fill="#003421"/>
<path d="M1047.28 246.724C1054.74 246.724 1060.56 252.782 1060.56 260.536C1060.56 268.048 1054.74 274.35 1047.28 274.35C1040.05 274.35 1034 268.048 1034 260.536C1034 252.782 1040.05 246.724 1047.28 246.724Z" fill="#65FF95"/>
<path d="M404.86 209.905C396.013 185.296 403.507 158.157 424.539 145.531C445.567 132.908 471.917 139.731 487.991 160.002L404.86 209.905ZM510.596 146.432C487.539 114.668 445.394 103.236 412.139 123.199C376.015 144.884 365.411 194.562 386.641 232.796C408.248 271.708 454.928 286.999 491.05 265.314C506.452 256.068 517.152 241.712 522.743 225.289C523.776 222.252 521.932 218.972 518.871 218.481L503.959 216.089C501.673 215.722 499.351 216.971 498.518 219.214C494.819 229.171 488.183 237.708 478.838 243.318C458.046 255.799 431.89 249.043 415.482 228.79L498.409 179.008L517.199 167.729C519.412 166.4 520.257 163.534 519.182 161.123C518.268 159.07 517.275 157.038 516.167 155.043C514.481 152.006 512.585 149.171 510.596 146.432Z" fill="#003421"/>
<path d="M320.915 364.191C320.779 363.484 321.052 363.272 321.664 363.272H323.297C323.705 363.272 324.045 363.625 324.113 364.049L335.544 405.506C335.612 405.506 335.68 405.506 335.68 405.506L347.655 363.2C347.792 362.777 348.268 362.564 348.676 362.564H348.812C349.22 362.564 349.697 362.777 349.833 363.2L361.876 405.506C361.876 405.506 361.944 405.506 362.011 405.506L373.375 364.049C373.443 363.625 373.782 363.272 374.19 363.272H375.823C376.436 363.272 376.708 363.484 376.572 364.191L363.101 413.004C363.033 413.288 362.759 413.5 362.489 413.5H361.74C361.4 413.5 361.194 413.359 361.058 413.004L348.812 369.922H348.676L336.429 413.004C336.293 413.359 336.089 413.5 335.748 413.5H335C334.728 413.5 334.455 413.288 334.387 413.004L320.915 364.191Z" fill="#65FF95"/>
<path d="M393.044 364.191C393.044 363.694 393.452 363.272 393.928 363.272H421.213C421.689 363.272 422.097 363.694 422.097 364.191V365.394C422.097 365.888 421.689 366.314 421.213 366.314H396.31V385.838H417.878C418.355 385.838 418.763 386.263 418.763 386.759V387.96C418.763 388.456 418.355 388.881 417.878 388.881H396.31V409.822H421.213C421.689 409.822 422.097 410.246 422.097 410.74V411.873C422.097 412.367 421.689 412.793 421.213 412.793H393.928C393.452 412.793 393.044 412.367 393.044 411.873V364.191Z" fill="#65FF95"/>
<path d="M456.393 386.193C462.788 386.193 466.53 382.019 466.53 376.217C466.53 370.063 462.448 366.384 455.916 366.384H443.737V386.193H456.393ZM456.801 409.822C463.4 409.822 468.028 405.434 468.028 399.279C468.028 392.984 462.856 389.234 456.393 389.234H443.669V409.822H456.801ZM440.539 364.191C440.539 363.694 440.947 363.272 441.424 363.272H455.916C464.285 363.272 470 368.294 470 376.076C470 381.665 466.735 385.768 462.516 387.536C467.347 388.881 471.497 392.56 471.497 399.351C471.497 407.274 465.374 412.793 456.529 412.793H441.424C440.947 412.793 440.539 412.367 440.539 411.873V364.191Z" fill="#65FF95"/>
<path d="M526.003 409.749C537.908 409.749 547.093 400.342 547.093 387.96C547.093 375.723 537.908 366.314 526.003 366.314H514.504V409.749H526.003ZM511.305 364.191C511.305 363.694 511.714 363.272 512.122 363.272H526.545C539.745 363.272 550.496 374.377 550.496 387.96C550.496 401.757 539.745 412.793 526.545 412.793H512.122C511.714 412.793 511.305 412.367 511.305 411.873V364.191Z" fill="#65FF95"/>
<path d="M568.327 364.191C568.327 363.694 568.735 363.272 569.212 363.272H596.497C596.973 363.272 597.381 363.694 597.381 364.191V365.394C597.381 365.888 596.973 366.314 596.497 366.314H571.593V385.838H593.162C593.638 385.838 594.047 386.263 594.047 386.759V387.96C594.047 388.456 593.638 388.881 593.162 388.881H571.593V409.822H596.497C596.973 409.822 597.381 410.246 597.381 410.74V411.873C597.381 412.367 596.973 412.793 596.497 412.793H569.212C568.735 412.793 568.327 412.367 568.327 411.873V364.191Z" fill="#65FF95"/>
<path d="M609.018 364.191C608.746 363.625 608.95 363.272 609.561 363.272H611.399C611.807 363.272 612.079 363.555 612.147 363.767L630.519 407.699C630.519 407.699 630.585 407.699 630.655 407.699L649.229 363.767C649.297 363.555 649.569 363.272 649.978 363.272H651.745C652.359 363.272 652.631 363.695 652.359 364.262L631.471 412.862C631.335 413.217 631.061 413.5 630.655 413.5H630.315C629.906 413.5 629.634 413.076 629.566 412.862L609.018 364.191Z" fill="#65FF95"/>
<path d="M666.923 364.191C666.923 363.694 667.332 363.272 667.808 363.272H695.093C695.568 363.272 695.976 363.694 695.976 364.191V365.394C695.976 365.888 695.568 366.314 695.093 366.314H670.189V385.838H691.758C692.234 385.838 692.643 386.263 692.643 386.759V387.96C692.643 388.456 692.234 388.881 691.758 388.881H670.189V409.822H695.093C695.568 409.822 695.976 410.246 695.976 410.74V411.873C695.976 412.367 695.568 412.793 695.093 412.793H667.808C667.332 412.793 666.923 412.367 666.923 411.873V364.191Z" fill="#65FF95"/>
<path d="M714.418 364.191C714.418 363.694 714.827 363.272 715.303 363.272H716.801C717.208 363.272 717.617 363.694 717.617 364.191V409.822H739.322C740.138 409.822 740.206 410.246 740.206 410.74V412.014C740.206 412.509 739.798 412.793 739.322 412.793H715.303C714.827 412.793 714.418 412.367 714.418 411.873V364.191Z" fill="#65FF95"/>
<path d="M774.842 410.387C786.751 410.387 796.411 400.484 796.411 388.102C796.411 375.723 786.751 365.677 774.842 365.677C762.935 365.677 753.342 375.723 753.342 388.102C753.342 400.484 762.935 410.387 774.842 410.387ZM774.842 362.564C788.518 362.564 799.405 373.955 799.405 388.102C799.405 402.323 788.518 413.5 774.842 413.5C761.236 413.5 750.349 402.323 750.349 388.102C750.349 373.955 761.236 362.564 774.842 362.564Z" fill="#65FF95"/>
<path d="M832.612 391.923C839.28 391.923 844.928 386.193 844.928 379.046C844.928 372.114 839.28 366.595 832.545 366.595H820.434V391.923H832.612ZM817.235 364.191C817.235 363.694 817.645 363.272 818.12 363.272H832.749C841.185 363.272 848.126 370.416 848.126 379.118C848.126 387.96 841.185 395.177 832.817 395.177H820.434V411.873C820.434 412.367 820.025 412.793 819.345 412.793H818.12C817.645 412.793 817.235 412.367 817.235 411.873V364.191Z" fill="#65FF95"/>
<path d="M870.038 363.059C870.105 362.777 870.378 362.564 870.65 362.564H871.399C871.739 362.564 871.943 362.705 872.079 363.059L886.095 406.496C886.164 406.496 886.164 406.496 886.232 406.496L900.317 363.059C900.453 362.705 900.657 362.564 900.997 362.564H901.744C902.018 362.564 902.288 362.777 902.358 363.059L912.018 411.873C912.154 412.581 911.883 412.793 911.269 412.793H909.638C909.229 412.793 908.889 412.438 908.821 412.014L901.133 370.558C901.063 370.558 900.997 370.558 900.997 370.558L887.253 412.935C887.117 413.359 886.708 413.5 886.3 413.5H886.028C885.688 413.5 885.279 413.429 885.143 412.935L871.399 370.558C871.399 370.558 871.33 370.558 871.263 370.558L863.574 412.014C863.506 412.438 863.166 412.793 862.758 412.793H861.125C860.513 412.793 860.24 412.581 860.376 411.873L870.038 363.059Z" fill="#65FF95"/>
<path d="M929.442 364.191C929.442 363.694 929.85 363.272 930.327 363.272H957.611C958.088 363.272 958.495 363.694 958.495 364.191V365.394C958.495 365.888 958.088 366.314 957.611 366.314H932.708V385.838H954.277C954.753 385.838 955.162 386.263 955.162 386.759V387.96C955.162 388.456 954.753 388.881 954.277 388.881H932.708V409.822H957.611C958.088 409.822 958.495 410.246 958.495 410.74V411.873C958.495 412.367 958.088 412.793 957.611 412.793H930.327C929.85 412.793 929.442 412.367 929.442 411.873V364.191Z" fill="#65FF95"/>
<path d="M976.938 363.484C976.938 362.919 977.413 362.564 977.959 362.564H979.116L1011.77 406.78C1011.84 406.78 1011.84 406.78 1011.84 406.78V364.191C1011.84 363.695 1012.25 363.272 1012.73 363.272H1014.09C1014.56 363.272 1014.97 363.695 1014.97 364.191V412.581C1014.97 413.217 1014.43 413.5 1013.88 413.5H1013C1012.93 413.5 1012.39 413.288 980.067 368.86H979.999V411.873C979.999 412.368 979.591 412.793 979.116 412.793H977.823C977.347 412.793 976.938 412.368 976.938 411.873V363.484Z" fill="#65FF95"/>
<path d="M1043.42 366.314H1030.42C1029.74 366.314 1029.54 365.888 1029.54 365.252V364.191C1029.54 363.625 1029.95 363.272 1030.42 363.272H1059.68C1060.22 363.272 1060.56 363.694 1060.56 364.191V365.394C1060.56 365.888 1060.22 366.314 1059.68 366.314H1046.62V411.873C1046.62 412.367 1046.21 412.793 1045.53 412.793H1044.3C1043.83 412.793 1043.42 412.367 1043.42 411.873V366.314Z" fill="#65FF95"/>
</svg>
