<svg width="459" height="360" viewBox="0 0 459 360" fill="none" xmlns="http://www.w3.org/2000/svg">
<mask id="mask0_100_17" style="mask-type:luminance" maskUnits="userSpaceOnUse" x="0" y="0" width="459" height="360">
<path fill-rule="evenodd" clip-rule="evenodd" d="M0 -0.000580374V359.469H458.745V-0.000580374H0Z" fill="white"/>
</mask>
<g mask="url(#mask0_100_17)">
<path d="M428.089 298.141C445.3 298.141 458.745 311.59 458.745 328.805C458.745 345.479 445.3 359.469 428.089 359.469C411.407 359.469 397.425 345.479 397.425 328.805C397.425 311.59 411.407 298.141 428.089 298.141Z" fill="#65FF95"/>
<path d="M67.1321 214.478C46.7128 159.849 64.0091 99.6001 112.553 71.5733C161.089 43.5509 221.912 58.6977 259.012 103.696L67.1321 214.478ZM311.188 73.5723C257.968 3.05938 160.689 -22.3184 83.9307 21.9983C0.552368 70.1368 -23.9248 180.417 25.0805 265.295C74.9527 351.677 182.696 385.619 266.075 337.481C301.624 316.955 326.32 285.086 339.224 248.627C341.609 241.889 337.353 234.606 330.288 233.517L295.869 228.206C290.593 227.391 285.235 230.163 283.312 235.143C274.775 257.247 259.456 276.198 237.884 288.653C189.893 316.361 129.52 301.361 91.6495 256.401L283.06 145.89L326.429 120.85C331.537 117.901 333.487 111.539 331.008 106.185C328.896 101.628 326.605 97.1179 324.048 92.6872C320.157 85.9481 315.777 79.6535 311.188 73.5723Z" fill="#003421"/>
</g>
</svg>
