<svg width="459" height="360" viewBox="0 0 459 360" fill="none" xmlns="http://www.w3.org/2000/svg">
<path d="M428.09 298.172C445.3 298.172 458.746 311.621 458.746 328.836C458.746 345.511 445.3 359.5 428.09 359.5C411.407 359.5 397.426 345.511 397.426 328.836C397.426 311.621 411.407 298.172 428.09 298.172Z" fill="#003421"/>
<path d="M67.1321 214.509C46.7128 159.88 64.0091 99.6314 112.553 71.6046C161.089 43.5822 221.912 58.729 259.012 103.727L67.1321 214.509ZM311.188 73.6035C257.968 3.09064 160.689 -22.2872 83.9307 22.0295C0.552368 70.168 -23.9248 180.448 25.0805 265.327C74.9527 351.708 182.696 385.651 266.075 337.512C301.624 316.987 326.32 285.117 339.224 248.659C341.609 241.92 337.353 234.637 330.288 233.548L295.869 228.237C290.593 227.423 285.235 230.195 283.312 235.175C274.775 257.279 259.456 276.229 237.884 288.684C189.893 316.392 129.52 301.392 91.6495 256.432L283.06 145.921L326.429 120.882C331.537 117.932 333.487 111.57 331.008 106.216C328.896 101.659 326.605 97.1491 324.048 92.7184C320.157 85.9794 315.777 79.6847 311.188 73.6035Z" fill="#003421"/>
</svg>
