<svg width="597" height="333" viewBox="0 0 597 333" fill="none" xmlns="http://www.w3.org/2000/svg">
<path d="M571.729 201.608C568.138 201.694 565.439 201.703 561.797 201.429L561.753 201.425L561.709 201.43C543.28 203.304 499.238 207.874 482.002 207.796L481.854 207.795L481.731 207.874C481.623 207.943 481.316 208.052 480.741 208.178C480.193 208.298 479.466 208.421 478.578 208.546C476.804 208.795 474.421 209.049 471.607 209.306C465.981 209.819 458.665 210.343 451.133 210.876C443.604 211.409 435.86 211.951 429.388 212.502C422.931 213.051 417.694 213.611 415.207 214.186L414.931 214.25L414.844 214.52C412.444 221.956 409.569 229.397 406.812 236.753L356.901 236.973C361.201 225.05 365.331 213.066 369.28 201.023C369.865 200.936 370.826 200.86 372.11 200.798C373.614 200.725 375.526 200.67 377.72 200.632C382.107 200.555 387.613 200.54 393.22 200.554C404.423 200.58 416.049 200.72 419.92 200.703L419.922 200.704L419.921 200.703L571.797 200.5L571.729 201.608Z" fill="#DC0000" stroke="#DC0000"/>
<path d="M138.132 275.778C154.387 275.276 172.111 275.633 188.526 275.674C184.281 287.815 179.968 299.933 175.59 312.025C158.81 311.889 142.03 311.903 125.25 312.068C129.364 299.908 133.658 287.811 138.132 275.778Z" fill="#DC0000" stroke="#DC0000"/>
<path d="M250.494 244.602L250.486 244.623C249.144 248.663 247.038 254.397 245.016 260.055C243.066 265.506 241.193 270.892 240.174 274.576C225.003 273.941 205.304 274.529 189.752 274.562L197.352 253.354L197.362 253.326L197.368 253.297C197.66 252.02 198.701 248.959 199.812 245.798C200.841 242.876 201.922 239.887 202.486 238.258L252.973 238.141L250.494 244.602Z" fill="#DC0000" stroke="#DC0000"/>
<path d="M304.977 238.293C321.822 238.164 338.676 238.18 355.521 238.339L342.559 274.494L292.423 274.496L304.977 238.293Z" fill="#DC0000" stroke="#DC0000"/>
<path d="M290.97 275.74C290.488 277.141 289.652 279.6 288.629 282.602C287.417 286.157 285.939 290.478 284.463 294.714C282.987 298.95 281.515 303.098 280.314 306.312C279.714 307.919 279.183 309.288 278.755 310.315C278.541 310.829 278.354 311.254 278.198 311.577C278.114 311.753 278.043 311.888 277.986 311.989C261.891 311.962 243.575 311.523 227.577 312.111C232.025 300.127 236.345 287.295 240.892 275.594L290.97 275.74Z" fill="#DC0000" stroke="#DC0000"/>
<path d="M201.719 236.917L191.632 236.874H191.63L151.517 236.885C155.309 225.085 159.611 212.943 163.618 201.163L178.513 201.061L214.706 200.9L201.719 236.917Z" fill="#DC0000" stroke="#DC0000"/>
<path d="M316.989 201.109C312.93 210.911 308.03 226.627 304.511 236.887L282.08 236.857H282.079L254.087 236.88C258.319 225.469 262.387 212.702 266.318 201.137L290.429 201.056L316.989 201.109Z" fill="#DC0000" stroke="#DC0000"/>
<path d="M150.15 238.244C145.636 249.921 141.321 262.685 137.096 274.504L86.9365 274.552C91.1313 264.629 96.1192 248.754 99.6973 238.354L150.15 238.244Z" fill="#DC0000" stroke="#DC0000"/>
<path d="M334.992 298.701C361.113 300.704 387.225 302.9 413.307 305.289L413.319 305.29C433.406 306.604 453.473 308.12 473.529 309.839L473.534 309.84C484.267 310.661 494.736 310.813 505.3 312.097C482.589 313.282 459.01 312.839 435.371 312.308C410.696 311.753 385.955 311.104 362.11 312.121C359.125 312.248 352.278 312.391 345.558 312.367C342.198 312.355 338.874 312.301 336.083 312.183C333.646 312.079 331.644 311.927 330.38 311.719C331.305 308.524 333.807 302.013 334.992 298.701Z" fill="#DC0000" stroke="#DC0000"/>
<path d="M443.105 236.557C447.325 236.713 459.231 236.954 470.755 237.297C476.677 237.473 482.502 237.677 487.145 237.911C488.758 237.992 490.228 238.078 491.508 238.166C485.385 238.625 475.868 239.484 466.574 240.197C456.342 240.983 446.394 241.587 441.41 241.313L441.079 240.64L443.105 236.557Z" fill="#DC0000" stroke="#DC0000"/>
<path d="M396.911 271.951C401.922 271.835 407.678 272.149 413.431 272.523C419.208 272.899 424.987 273.333 429.964 273.443L432.605 274.532C430.607 274.603 428.202 274.775 425.591 274.987C421.773 275.297 417.503 275.689 413.354 275.968C409.206 276.246 405.202 276.411 401.926 276.267C400.288 276.195 398.846 276.046 397.665 275.801C396.611 275.582 395.804 275.292 395.256 274.941L395.278 273.448C395.742 273.022 396.285 272.524 396.911 271.951Z" fill="#DC0000" stroke="#DC0000"/>
<path d="M449.356 76.0625C458.943 43.3634 493.13 24.5364 525.89 33.916L525.892 33.917C526.142 33.9886 526.392 34.0615 526.643 34.1367L527.396 34.3682C559.653 44.4961 577.794 78.5766 568.307 110.926L568.078 111.689C558.077 144.264 523.653 162.656 491.016 152.861L490.253 152.627C458.089 142.531 439.844 108.506 449.356 76.0625Z" stroke="#DC0000" stroke-width="51"/>
<path d="M386.287 6.05078L386.278 180.054C375.237 180.937 354.51 180.36 342.672 180.367C343.162 134.287 342.608 87.37 342.708 41.1992L342.709 40.6973L342.207 40.6982L302.659 40.7832L302.727 5.9834L386.287 6.05078Z" fill="#DC0000" stroke="#DC0000"/>
<path d="M126.46 0.946289C133.054 0.96621 150.177 0.310199 166.546 0.553711C174.715 0.675242 182.654 1.02186 188.929 1.78711C192.067 2.16985 194.774 2.65546 196.879 3.26465C199.011 3.88155 200.43 4.59974 201.1 5.38379L201.227 5.5332L201.422 5.55566C214.128 7.05234 224.906 12.0469 235.983 18.2793L238.265 19.7148C242.092 22.7569 245.771 25.9906 249.271 29.4033C266.288 46.2844 275.025 68.2296 275.37 92.0391L275.38 93.1748C275.309 116.269 266.163 138.41 249.929 154.827C238.694 165.896 224.617 173.638 209.257 177.193L209.253 177.194C200.887 179.21 189.257 179.878 177.39 180.038C167.003 180.178 156.5 179.928 147.869 179.861L144.29 179.846L56.4199 179.854H55.9199V180.355L55.9893 280.432C37.7608 296.33 18.559 314.38 0.838867 331.017L0.729492 180.856C20.5924 162.943 42.2761 144.762 62.6738 127.355L148.079 127.438H148.08C163.501 127.447 178.31 128.109 193.71 126.235C212.857 123.905 221.56 107.562 221.086 91.5195C220.613 75.4939 210.971 59.489 193.187 57.8408C175.056 56.159 152.461 57.2635 133.91 57.2715H133.909L1.4082 57.4346C15.8489 45.6984 48.2236 18.3328 59.7051 6.7666L59.9033 6.56641L59.835 6.29297L59.5693 5.22949C60.5588 3.82523 62.5066 2.79841 65.124 2.08496C67.8256 1.34862 71.1312 0.973117 74.5459 0.804688C81.3897 0.467116 88.5168 0.963595 91.9961 0.993164H92.001L126.461 0.947266L126.46 0.946289Z" fill="#DC0000" stroke="#DC0000"/>
</svg>
