<svg width="2173" height="437" viewBox="0 0 2173 437" fill="none" xmlns="http://www.w3.org/2000/svg">
<path d="M2148.4 201.608C2144.81 201.694 2142.11 201.703 2138.47 201.429L2138.42 201.425L2138.38 201.43C2119.95 203.304 2075.91 207.874 2058.67 207.796L2058.52 207.795L2058.4 207.874C2058.29 207.943 2057.99 208.052 2057.41 208.178C2056.86 208.298 2056.14 208.421 2055.25 208.546C2053.47 208.795 2051.09 209.049 2048.28 209.306C2042.65 209.819 2035.33 210.343 2027.8 210.876C2020.27 211.409 2012.53 211.951 2006.06 212.502C1999.6 213.051 1994.36 213.611 1991.88 214.186L1991.6 214.25L1991.51 214.52C1989.11 221.956 1986.24 229.397 1983.48 236.753L1933.57 236.973C1937.87 225.05 1942 213.066 1945.95 201.023C1946.53 200.936 1947.5 200.86 1948.78 200.798C1950.28 200.725 1952.2 200.67 1954.39 200.632C1958.78 200.555 1964.28 200.54 1969.89 200.554C1981.09 200.58 1992.72 200.72 1996.59 200.703L1996.59 200.704L1996.59 200.703L2148.47 200.5L2148.4 201.608Z" fill="#192335" stroke="#192335"/>
<path d="M1714.8 275.778C1731.06 275.276 1748.78 275.633 1765.2 275.674C1760.95 287.815 1756.64 299.933 1752.26 312.025C1735.48 311.889 1718.7 311.903 1701.92 312.068C1706.03 299.908 1710.33 287.811 1714.8 275.778Z" fill="#192335" stroke="#192335"/>
<path d="M1827.16 244.602L1827.16 244.623C1825.81 248.663 1823.71 254.397 1821.69 260.055C1819.74 265.506 1817.86 270.892 1816.84 274.576C1801.67 273.941 1781.97 274.529 1766.42 274.562L1774.02 253.354L1774.03 253.326L1774.04 253.297C1774.33 252.02 1775.37 248.959 1776.48 245.798C1777.51 242.876 1778.59 239.887 1779.16 238.258L1829.64 238.141L1827.16 244.602Z" fill="#192335" stroke="#192335"/>
<path d="M1881.65 238.293C1898.49 238.164 1915.35 238.18 1932.19 238.339L1919.23 274.494L1869.09 274.496L1881.65 238.293Z" fill="#192335" stroke="#192335"/>
<path d="M1867.64 275.74C1867.16 277.141 1866.32 279.6 1865.3 282.602C1864.09 286.157 1862.61 290.478 1861.13 294.714C1859.66 298.95 1858.18 303.098 1856.98 306.312C1856.38 307.919 1855.85 309.288 1855.42 310.315C1855.21 310.829 1855.02 311.254 1854.87 311.577C1854.78 311.753 1854.71 311.888 1854.66 311.989C1838.56 311.962 1820.24 311.523 1804.25 312.111C1808.7 300.127 1813.01 287.295 1817.56 275.594L1867.64 275.74Z" fill="#192335" stroke="#192335"/>
<path d="M1778.39 236.917L1768.3 236.874H1768.3L1728.19 236.885C1731.98 225.085 1736.28 212.943 1740.29 201.163L1755.18 201.061L1791.38 200.9L1778.39 236.917Z" fill="#192335" stroke="#192335"/>
<path d="M1893.66 201.109C1889.6 210.911 1884.7 226.627 1881.18 236.887L1858.75 236.857H1858.75L1830.76 236.88C1834.99 225.469 1839.06 212.702 1842.99 201.137L1867.1 201.056L1893.66 201.109Z" fill="#192335" stroke="#192335"/>
<path d="M1726.82 238.244C1722.31 249.921 1717.99 262.685 1713.77 274.504L1663.61 274.552C1667.8 264.629 1672.79 248.754 1676.37 238.354L1726.82 238.244Z" fill="#192335" stroke="#192335"/>
<path d="M1911.66 298.701C1937.78 300.704 1963.9 302.9 1989.98 305.289L1989.99 305.29C2010.08 306.604 2030.14 308.12 2050.2 309.839L2050.2 309.84C2060.94 310.661 2071.41 310.813 2081.97 312.097C2059.26 313.282 2035.68 312.839 2012.04 312.308C1987.37 311.753 1962.62 311.104 1938.78 312.121C1935.79 312.248 1928.95 312.391 1922.23 312.367C1918.87 312.355 1915.54 312.301 1912.75 312.183C1910.32 312.079 1908.31 311.927 1907.05 311.719C1907.97 308.524 1910.48 302.013 1911.66 298.701Z" fill="#192335" stroke="#192335"/>
<path d="M2019.78 236.557C2023.99 236.713 2035.9 236.954 2047.42 237.297C2053.35 237.473 2059.17 237.677 2063.81 237.911C2065.43 237.992 2066.9 238.078 2068.18 238.166C2062.06 238.625 2052.54 239.484 2043.24 240.197C2033.01 240.983 2023.06 241.587 2018.08 241.313L2017.75 240.64L2019.78 236.557Z" fill="#192335" stroke="#192335"/>
<path d="M1973.58 271.951C1978.59 271.835 1984.35 272.149 1990.1 272.523C1995.88 272.899 2001.66 273.333 2006.63 273.443L2009.28 274.532C2007.28 274.603 2004.87 274.775 2002.26 274.987C1998.44 275.297 1994.17 275.689 1990.02 275.968C1985.88 276.246 1981.87 276.411 1978.6 276.267C1976.96 276.195 1975.52 276.046 1974.33 275.801C1973.28 275.582 1972.47 275.292 1971.93 274.941L1971.95 273.448C1972.41 273.022 1972.95 272.524 1973.58 271.951Z" fill="#192335" stroke="#192335"/>
<path d="M2026.03 76.0625C2035.61 43.3634 2069.8 24.5364 2102.56 33.916L2102.56 33.917C2102.81 33.9886 2103.06 34.0615 2103.31 34.1367L2104.07 34.3682C2136.32 44.4961 2154.46 78.5766 2144.98 110.926L2144.75 111.689C2134.75 144.264 2100.32 162.656 2067.69 152.861L2066.92 152.627C2034.76 142.531 2016.51 108.506 2026.03 76.0625Z" stroke="#192335" stroke-width="51"/>
<path d="M1962.96 6.05078L1962.95 180.054C1951.91 180.937 1931.18 180.36 1919.34 180.367C1919.83 134.287 1919.28 87.37 1919.38 41.1992L1919.38 40.6973L1918.88 40.6982L1879.33 40.7832L1879.4 5.9834L1962.96 6.05078Z" fill="#192335" stroke="#192335"/>
<path d="M1703.13 0.946289C1709.72 0.96621 1726.85 0.310199 1743.22 0.553711C1751.38 0.675242 1759.32 1.02186 1765.6 1.78711C1768.74 2.16985 1771.44 2.65546 1773.55 3.26465C1775.68 3.88155 1777.1 4.59974 1777.77 5.38379L1777.9 5.5332L1778.09 5.55566C1790.8 7.05234 1801.58 12.0469 1812.65 18.2793L1814.93 19.7148C1818.76 22.7569 1822.44 25.9906 1825.94 29.4033C1842.96 46.2844 1851.7 68.2296 1852.04 92.0391L1852.05 93.1748C1851.98 116.269 1842.83 138.41 1826.6 154.827C1815.36 165.896 1801.29 173.638 1785.93 177.193L1785.92 177.194C1777.56 179.21 1765.93 179.878 1754.06 180.038C1743.67 180.178 1733.17 179.928 1724.54 179.861L1720.96 179.846L1633.09 179.854H1632.59V180.355L1632.66 280.432C1614.43 296.33 1595.23 314.38 1577.51 331.017L1577.4 180.856C1597.26 162.943 1618.95 144.762 1639.34 127.355L1724.75 127.438H1724.75C1740.17 127.447 1754.98 128.109 1770.38 126.235C1789.53 123.905 1798.23 107.562 1797.76 91.5195C1797.28 75.4939 1787.64 59.489 1769.86 57.8408C1751.73 56.159 1729.13 57.2635 1710.58 57.2715H1710.58L1578.08 57.4346C1592.52 45.6984 1624.89 18.3328 1636.38 6.7666L1636.57 6.56641L1636.5 6.29297L1636.24 5.22949C1637.23 3.82523 1639.18 2.79841 1641.79 2.08496C1644.5 1.34862 1647.8 0.973117 1651.22 0.804688C1658.06 0.467116 1665.19 0.963595 1668.67 0.993164H1668.67L1703.13 0.947266L1703.13 0.946289Z" fill="#192335" stroke="#192335"/>
<path d="M339.415 131.737C358.175 67.7533 425.069 30.9149 489.172 49.2686L489.174 49.2695C490.156 49.5507 491.137 49.8444 492.118 50.1523C555.734 70.1258 591.294 137.71 571.724 201.451H571.723C552.153 265.192 484.796 301.18 420.933 282.015V282.014L419.44 281.556C356.998 261.956 321.365 196.268 338.985 133.238L339.415 131.737Z" stroke="#192335" stroke-width="51"/>
<path d="M667.437 131.737C686.196 67.7533 753.091 30.9149 817.193 49.2686L817.195 49.2695C818.177 49.5507 819.159 49.8444 820.14 50.1523C883.755 70.1258 919.315 137.71 899.745 201.451H899.744C880.175 265.192 812.817 301.18 748.954 282.015V282.014L747.462 281.556C685.02 261.956 649.387 196.268 667.007 133.238L667.437 131.737Z" stroke="#192335" stroke-width="51"/>
<path d="M1125.83 24.3975L1249.83 305.295C1230.36 304.922 1209.71 305.24 1190.18 305.265C1184.2 288.132 1170.81 259.235 1163.4 241.84L1163.27 241.541L1162.95 241.536L1158.77 241.48C1148.98 241.38 1138.99 241.464 1129.25 241.438H1129.25L1024.03 241.535L1023.69 241.536L1023.57 241.849C1015.03 263.041 1005.95 284.033 997.435 305.355C978.344 304.901 957.627 305.213 938.417 305.183C951.093 278.168 963.618 247.888 975.722 220.044L978.158 214.461L1061.23 24.3701L1125.83 24.3975Z" fill="#192335" stroke="#192335"/>
<path d="M1093.28 78.9229C1097.41 91.117 1106.77 111.775 1112.29 124.55L1113.38 127.079L1119.85 142.926L1119.85 142.932L1140.52 191.641L1046.32 191.715C1062.35 154.273 1078 116.674 1093.28 78.9229Z" fill="#F8FAFC" stroke="#F8FAFC"/>
<path d="M149.42 20.6025C195.051 20.7544 232.345 37.2379 264.241 69.2334C251.533 81.5506 238.767 94.4368 226.179 106.903C207.49 90.0314 187.766 78.0118 162.401 74.7188C111.376 68.0934 65.9003 99.5866 59.2783 151.799C52.8219 202.699 82.5242 250.007 135.611 256.041C165.512 259.44 189.591 253.795 213.492 235.245L213.688 235.093L213.686 234.845C213.535 221.24 213.7 207.378 213.728 193.74L213.729 193.239H213.229L143.378 193.204L143.329 145.676L158.249 145.721H158.25L268.436 145.705C267.408 180.515 268.333 220.681 268.299 255.966C253.716 272.937 238.877 285.282 221.984 293.988C205.044 302.719 186.014 307.804 163.065 310.207C27.9778 324.352 -48.0729 172.9 35.7227 69.916C61.7976 37.8701 99.3734 23.827 140.851 20.7588C143.705 20.6511 146.563 20.5993 149.42 20.6025Z" fill="#192335" stroke="#192335"/>
<path d="M1474.45 77.4551L1385.06 77.4658H1384.56L1384.56 77.9658L1384.68 159.347L1384.66 305.285L1327.98 305.262C1328.14 229.65 1327.26 153.463 1328.04 77.9453L1328.05 77.4404H1327.54L1213 77.5225C1204.74 60.0293 1196.36 42.5906 1187.88 25.2051C1302.12 26.6835 1420.53 25.3128 1534.95 25.2031L1474.45 77.4551Z" fill="#192335" stroke="#192335"/>
<mask id="path-21-outside-1_745_237" maskUnits="userSpaceOnUse" x="3" y="362" width="1377" height="59" fill="black">
<rect fill="white" x="3" y="362" width="1377" height="59"/>
<path d="M43.892 381.5C43.3061 379.707 42.5337 378.1 41.5749 376.679C40.6339 375.241 39.5064 374.016 38.1925 373.004C36.8963 371.992 35.4226 371.219 33.7713 370.687C32.12 370.154 30.3089 369.888 28.3381 369.888C25.1065 369.888 22.168 370.722 19.5224 372.391C16.8768 374.06 14.7727 376.52 13.2102 379.769C11.6477 383.018 10.8665 387.004 10.8665 391.727C10.8665 396.45 11.6566 400.436 13.2369 403.686C14.8171 406.935 16.9567 409.394 19.6555 411.063C22.3544 412.732 25.3906 413.567 28.7642 413.567C31.8892 413.567 34.6413 412.901 37.0206 411.569C39.4176 410.22 41.282 408.32 42.6136 405.87C43.9631 403.402 44.6378 400.499 44.6378 397.161L46.6619 397.587H30.2557V391.727H51.0298V397.587C51.0298 402.079 50.071 405.985 48.1534 409.305C46.2536 412.626 43.6257 415.2 40.2699 417.029C36.9318 418.84 33.0966 419.746 28.7642 419.746C23.9347 419.746 19.6911 418.609 16.0334 416.337C12.3935 414.064 9.55256 410.832 7.51065 406.642C5.48651 402.452 4.47443 397.48 4.47443 391.727C4.47443 387.413 5.05149 383.533 6.20561 380.088C7.37749 376.626 9.02876 373.679 11.1594 371.246C13.2901 368.814 15.8114 366.949 18.7234 365.653C21.6353 364.357 24.8402 363.709 28.3381 363.709C31.2145 363.709 33.8956 364.144 36.3814 365.014C38.8849 365.866 41.1133 367.082 43.0664 368.663C45.0373 370.225 46.6797 372.098 47.9936 374.282C49.3075 376.449 50.2131 378.854 50.7102 381.5H43.892ZM62.3424 419V364.455H80.7728C85.0342 364.455 88.532 365.183 91.2664 366.638C94.0008 368.077 96.0249 370.056 97.3389 372.578C98.6528 375.099 99.3097 377.967 99.3097 381.18C99.3097 384.394 98.6528 387.244 97.3389 389.73C96.0249 392.216 94.0097 394.169 91.2931 395.589C88.5764 396.992 85.1052 397.693 80.8794 397.693H65.9646V391.727H80.6663C83.5782 391.727 85.922 391.301 87.6975 390.449C89.4909 389.597 90.787 388.389 91.586 386.827C92.4028 385.246 92.8112 383.364 92.8112 381.18C92.8112 378.996 92.4028 377.088 91.586 375.454C90.7693 373.821 89.4642 372.56 87.6709 371.672C85.8776 370.767 83.5072 370.314 80.5597 370.314H68.9475V419H62.3424ZM88.0171 394.497L101.44 419H93.77L80.5597 394.497H88.0171ZM110.316 419V364.455H143.235V370.314H116.921V388.744H141.531V394.604H116.921V413.141H143.661V419H110.316ZM157.377 419H150.453L170.481 364.455H177.299L197.328 419H190.403L174.103 373.084H173.677L157.377 419ZM159.934 397.693H187.846V403.553H159.934V397.693ZM196.469 370.314V364.455H237.378V370.314H220.226V419H213.621V370.314H196.469ZM247.572 419V364.455H280.491V370.314H254.177V388.744H278.786V394.604H254.177V413.141H280.917V419H247.572ZM322.226 378.091C321.906 375.392 320.61 373.297 318.337 371.805C316.064 370.314 313.277 369.568 309.974 369.568C307.559 369.568 305.447 369.959 303.635 370.74C301.842 371.521 300.439 372.596 299.427 373.963C298.433 375.33 297.936 376.884 297.936 378.624C297.936 380.08 298.282 381.331 298.975 382.379C299.685 383.409 300.59 384.27 301.691 384.962C302.792 385.637 303.946 386.196 305.154 386.64C306.361 387.066 307.471 387.413 308.483 387.679L314.023 389.17C315.443 389.543 317.023 390.058 318.763 390.715C320.521 391.372 322.199 392.269 323.797 393.405C325.413 394.524 326.744 395.962 327.792 397.72C328.84 399.478 329.363 401.635 329.363 404.192C329.363 407.139 328.591 409.803 327.046 412.182C325.519 414.561 323.282 416.452 320.335 417.855C317.405 419.257 313.845 419.959 309.655 419.959C305.748 419.959 302.366 419.328 299.507 418.068C296.666 416.807 294.429 415.049 292.796 412.794C291.18 410.539 290.265 407.92 290.052 404.938H296.871C297.048 406.997 297.741 408.702 298.948 410.051C300.173 411.383 301.718 412.377 303.582 413.034C305.464 413.673 307.488 413.993 309.655 413.993C312.176 413.993 314.44 413.585 316.446 412.768C318.453 411.933 320.042 410.779 321.214 409.305C322.385 407.814 322.971 406.074 322.971 404.085C322.971 402.274 322.465 400.8 321.453 399.664C320.441 398.528 319.11 397.604 317.458 396.894C315.807 396.184 314.023 395.562 312.105 395.03L305.393 393.112C301.132 391.887 297.758 390.138 295.273 387.865C292.787 385.593 291.544 382.619 291.544 378.943C291.544 375.889 292.369 373.226 294.021 370.953C295.69 368.663 297.927 366.887 300.732 365.626C303.556 364.348 306.707 363.709 310.187 363.709C313.703 363.709 316.828 364.339 319.562 365.6C322.297 366.843 324.463 368.547 326.061 370.713C327.677 372.88 328.529 375.339 328.618 378.091H322.226ZM337.24 370.314V364.455H378.149V370.314H360.997V419H354.392V370.314H337.24ZM455.46 391.727C455.46 397.48 454.421 402.452 452.344 406.642C450.266 410.832 447.417 414.064 443.794 416.337C440.172 418.609 436.035 419.746 431.383 419.746C426.731 419.746 422.594 418.609 418.972 416.337C415.35 414.064 412.5 410.832 410.423 406.642C408.345 402.452 407.306 397.48 407.306 391.727C407.306 385.974 408.345 381.003 410.423 376.812C412.5 372.622 415.35 369.391 418.972 367.118C422.594 364.845 426.731 363.709 431.383 363.709C436.035 363.709 440.172 364.845 443.794 367.118C447.417 369.391 450.266 372.622 452.344 376.812C454.421 381.003 455.46 385.974 455.46 391.727ZM449.068 391.727C449.068 387.004 448.278 383.018 446.697 379.769C445.135 376.52 443.013 374.06 440.332 372.391C437.669 370.722 434.686 369.888 431.383 369.888C428.081 369.888 425.089 370.722 422.408 372.391C419.744 374.06 417.623 376.52 416.042 379.769C414.48 383.018 413.699 387.004 413.699 391.727C413.699 396.45 414.48 400.436 416.042 403.686C417.623 406.935 419.744 409.394 422.408 411.063C425.089 412.732 428.081 413.567 431.383 413.567C434.686 413.567 437.669 412.732 440.332 411.063C443.013 409.394 445.135 406.935 446.697 403.686C448.278 400.436 449.068 396.45 449.068 391.727ZM509.819 364.455V419H503.427L473.704 376.173H473.171V419H466.566V364.455H472.958L502.788 407.388H503.32V364.455H509.819ZM523.036 419V364.455H555.955V370.314H529.641V388.744H554.25V394.604H529.641V413.141H556.381V419H523.036ZM588.954 419V364.455H607.384C611.663 364.455 615.161 365.227 617.878 366.772C620.612 368.299 622.636 370.367 623.95 372.977C625.264 375.587 625.921 378.499 625.921 381.713C625.921 384.927 625.264 387.848 623.95 390.475C622.654 393.103 620.648 395.199 617.931 396.761C615.214 398.306 611.734 399.078 607.491 399.078H594.28V393.219H607.278C610.207 393.219 612.56 392.713 614.335 391.701C616.111 390.689 617.398 389.321 618.197 387.599C619.014 385.859 619.422 383.897 619.422 381.713C619.422 379.529 619.014 377.576 618.197 375.854C617.398 374.131 616.102 372.782 614.309 371.805C612.516 370.811 610.136 370.314 607.171 370.314H595.559V419H588.954ZM682.584 391.727C682.584 397.48 681.545 402.452 679.468 406.642C677.39 410.832 674.541 414.064 670.918 416.337C667.296 418.609 663.159 419.746 658.507 419.746C653.855 419.746 649.718 418.609 646.096 416.337C642.474 414.064 639.624 410.832 637.547 406.642C635.469 402.452 634.43 397.48 634.43 391.727C634.43 385.974 635.469 381.003 637.547 376.812C639.624 372.622 642.474 369.391 646.096 367.118C649.718 364.845 653.855 363.709 658.507 363.709C663.159 363.709 667.296 364.845 670.918 367.118C674.541 369.391 677.39 372.622 679.468 376.812C681.545 381.003 682.584 385.974 682.584 391.727ZM676.192 391.727C676.192 387.004 675.402 383.018 673.821 379.769C672.259 376.52 670.137 374.06 667.456 372.391C664.793 370.722 661.81 369.888 658.507 369.888C655.205 369.888 652.213 370.722 649.532 372.391C646.868 374.06 644.747 376.52 643.166 379.769C641.604 383.018 640.823 387.004 640.823 391.727C640.823 396.45 641.604 400.436 643.166 403.686C644.747 406.935 646.868 409.394 649.532 411.063C652.213 412.732 655.205 413.567 658.507 413.567C661.81 413.567 664.793 412.732 667.456 411.063C670.137 409.394 672.259 406.935 673.821 403.686C675.402 400.436 676.192 396.45 676.192 391.727ZM700.295 364.455V419H693.69V364.455H700.295ZM756.792 364.455V419H750.4L720.676 376.173H720.144V419H713.539V364.455H719.931L749.76 407.388H750.293V364.455H756.792ZM767.025 370.314V364.455H807.935V370.314H790.783V419H784.177V370.314H767.025ZM818.129 419V364.455H851.048V370.314H824.734V388.744H849.343V394.604H824.734V413.141H851.474V419H818.129ZM862.953 419V364.455H881.383C885.645 364.455 889.142 365.183 891.877 366.638C894.611 368.077 896.635 370.056 897.949 372.578C899.263 375.099 899.92 377.967 899.92 381.18C899.92 384.394 899.263 387.244 897.949 389.73C896.635 392.216 894.62 394.169 891.903 395.589C889.187 396.992 885.716 397.693 881.49 397.693H866.575V391.727H881.277C884.189 391.727 886.532 391.301 888.308 390.449C890.101 389.597 891.397 388.389 892.196 386.827C893.013 385.246 893.422 383.364 893.422 381.18C893.422 378.996 893.013 377.088 892.196 375.454C891.38 373.821 890.075 372.56 888.281 371.672C886.488 370.767 884.118 370.314 881.17 370.314H869.558V419H862.953ZM888.627 394.497L902.051 419H894.38L881.17 394.497H888.627ZM978.043 391.727C978.043 397.48 977.004 402.452 974.927 406.642C972.849 410.832 970 414.064 966.377 416.337C962.755 418.609 958.618 419.746 953.966 419.746C949.314 419.746 945.177 418.609 941.555 416.337C937.933 414.064 935.083 410.832 933.006 406.642C930.928 402.452 929.889 397.48 929.889 391.727C929.889 385.974 930.928 381.003 933.006 376.812C935.083 372.622 937.933 369.391 941.555 367.118C945.177 364.845 949.314 363.709 953.966 363.709C958.618 363.709 962.755 364.845 966.377 367.118C970 369.391 972.849 372.622 974.927 376.812C977.004 381.003 978.043 385.974 978.043 391.727ZM971.651 391.727C971.651 387.004 970.861 383.018 969.28 379.769C967.718 376.52 965.596 374.06 962.915 372.391C960.252 370.722 957.269 369.888 953.966 369.888C950.664 369.888 947.672 370.722 944.991 372.391C942.327 374.06 940.206 376.52 938.625 379.769C937.063 383.018 936.282 387.004 936.282 391.727C936.282 396.45 937.063 400.436 938.625 403.686C940.206 406.935 942.327 409.394 944.991 411.063C947.672 412.732 950.664 413.567 953.966 413.567C957.269 413.567 960.252 412.732 962.915 411.063C965.596 409.394 967.718 406.935 969.28 403.686C970.861 400.436 971.651 396.45 971.651 391.727ZM989.149 419V364.455H1021.86V370.314H995.754V388.744H1019.4V394.604H995.754V419H989.149ZM1056.5 419H1049.57L1069.6 364.455H1076.42L1096.45 419H1089.52L1073.22 373.084H1072.8L1056.5 419ZM1059.06 397.693H1086.97V403.553H1059.06V397.693ZM1104.94 419V364.455H1111.55V413.141H1136.91V419H1104.94ZM1147.13 419V364.455H1153.74V413.141H1179.09V419H1147.13ZM1207.43 370.314V364.455H1248.34V370.314H1231.19V419H1224.58V370.314H1207.43ZM1265.14 364.455V419H1258.53V364.455H1265.14ZM1278.38 364.455H1286.27L1304.8 409.732H1305.44L1323.98 364.455H1331.86V419H1325.68V377.558H1325.15L1308.11 419H1302.14L1285.09 377.558H1284.56V419H1278.38V364.455ZM1345.11 419V364.455H1378.03V370.314H1351.71V388.744H1376.32V394.604H1351.71V413.141H1378.45V419H1345.11Z"/>
</mask>
<path d="M43.892 381.5C43.3061 379.707 42.5337 378.1 41.5749 376.679C40.6339 375.241 39.5064 374.016 38.1925 373.004C36.8963 371.992 35.4226 371.219 33.7713 370.687C32.12 370.154 30.3089 369.888 28.3381 369.888C25.1065 369.888 22.168 370.722 19.5224 372.391C16.8768 374.06 14.7727 376.52 13.2102 379.769C11.6477 383.018 10.8665 387.004 10.8665 391.727C10.8665 396.45 11.6566 400.436 13.2369 403.686C14.8171 406.935 16.9567 409.394 19.6555 411.063C22.3544 412.732 25.3906 413.567 28.7642 413.567C31.8892 413.567 34.6413 412.901 37.0206 411.569C39.4176 410.22 41.282 408.32 42.6136 405.87C43.9631 403.402 44.6378 400.499 44.6378 397.161L46.6619 397.587H30.2557V391.727H51.0298V397.587C51.0298 402.079 50.071 405.985 48.1534 409.305C46.2536 412.626 43.6257 415.2 40.2699 417.029C36.9318 418.84 33.0966 419.746 28.7642 419.746C23.9347 419.746 19.6911 418.609 16.0334 416.337C12.3935 414.064 9.55256 410.832 7.51065 406.642C5.48651 402.452 4.47443 397.48 4.47443 391.727C4.47443 387.413 5.05149 383.533 6.20561 380.088C7.37749 376.626 9.02876 373.679 11.1594 371.246C13.2901 368.814 15.8114 366.949 18.7234 365.653C21.6353 364.357 24.8402 363.709 28.3381 363.709C31.2145 363.709 33.8956 364.144 36.3814 365.014C38.8849 365.866 41.1133 367.082 43.0664 368.663C45.0373 370.225 46.6797 372.098 47.9936 374.282C49.3075 376.449 50.2131 378.854 50.7102 381.5H43.892ZM62.3424 419V364.455H80.7728C85.0342 364.455 88.532 365.183 91.2664 366.638C94.0008 368.077 96.0249 370.056 97.3389 372.578C98.6528 375.099 99.3097 377.967 99.3097 381.18C99.3097 384.394 98.6528 387.244 97.3389 389.73C96.0249 392.216 94.0097 394.169 91.2931 395.589C88.5764 396.992 85.1052 397.693 80.8794 397.693H65.9646V391.727H80.6663C83.5782 391.727 85.922 391.301 87.6975 390.449C89.4909 389.597 90.787 388.389 91.586 386.827C92.4028 385.246 92.8112 383.364 92.8112 381.18C92.8112 378.996 92.4028 377.088 91.586 375.454C90.7693 373.821 89.4642 372.56 87.6709 371.672C85.8776 370.767 83.5072 370.314 80.5597 370.314H68.9475V419H62.3424ZM88.0171 394.497L101.44 419H93.77L80.5597 394.497H88.0171ZM110.316 419V364.455H143.235V370.314H116.921V388.744H141.531V394.604H116.921V413.141H143.661V419H110.316ZM157.377 419H150.453L170.481 364.455H177.299L197.328 419H190.403L174.103 373.084H173.677L157.377 419ZM159.934 397.693H187.846V403.553H159.934V397.693ZM196.469 370.314V364.455H237.378V370.314H220.226V419H213.621V370.314H196.469ZM247.572 419V364.455H280.491V370.314H254.177V388.744H278.786V394.604H254.177V413.141H280.917V419H247.572ZM322.226 378.091C321.906 375.392 320.61 373.297 318.337 371.805C316.064 370.314 313.277 369.568 309.974 369.568C307.559 369.568 305.447 369.959 303.635 370.74C301.842 371.521 300.439 372.596 299.427 373.963C298.433 375.33 297.936 376.884 297.936 378.624C297.936 380.08 298.282 381.331 298.975 382.379C299.685 383.409 300.59 384.27 301.691 384.962C302.792 385.637 303.946 386.196 305.154 386.64C306.361 387.066 307.471 387.413 308.483 387.679L314.023 389.17C315.443 389.543 317.023 390.058 318.763 390.715C320.521 391.372 322.199 392.269 323.797 393.405C325.413 394.524 326.744 395.962 327.792 397.72C328.84 399.478 329.363 401.635 329.363 404.192C329.363 407.139 328.591 409.803 327.046 412.182C325.519 414.561 323.282 416.452 320.335 417.855C317.405 419.257 313.845 419.959 309.655 419.959C305.748 419.959 302.366 419.328 299.507 418.068C296.666 416.807 294.429 415.049 292.796 412.794C291.18 410.539 290.265 407.92 290.052 404.938H296.871C297.048 406.997 297.741 408.702 298.948 410.051C300.173 411.383 301.718 412.377 303.582 413.034C305.464 413.673 307.488 413.993 309.655 413.993C312.176 413.993 314.44 413.585 316.446 412.768C318.453 411.933 320.042 410.779 321.214 409.305C322.385 407.814 322.971 406.074 322.971 404.085C322.971 402.274 322.465 400.8 321.453 399.664C320.441 398.528 319.11 397.604 317.458 396.894C315.807 396.184 314.023 395.562 312.105 395.03L305.393 393.112C301.132 391.887 297.758 390.138 295.273 387.865C292.787 385.593 291.544 382.619 291.544 378.943C291.544 375.889 292.369 373.226 294.021 370.953C295.69 368.663 297.927 366.887 300.732 365.626C303.556 364.348 306.707 363.709 310.187 363.709C313.703 363.709 316.828 364.339 319.562 365.6C322.297 366.843 324.463 368.547 326.061 370.713C327.677 372.88 328.529 375.339 328.618 378.091H322.226ZM337.24 370.314V364.455H378.149V370.314H360.997V419H354.392V370.314H337.24ZM455.46 391.727C455.46 397.48 454.421 402.452 452.344 406.642C450.266 410.832 447.417 414.064 443.794 416.337C440.172 418.609 436.035 419.746 431.383 419.746C426.731 419.746 422.594 418.609 418.972 416.337C415.35 414.064 412.5 410.832 410.423 406.642C408.345 402.452 407.306 397.48 407.306 391.727C407.306 385.974 408.345 381.003 410.423 376.812C412.5 372.622 415.35 369.391 418.972 367.118C422.594 364.845 426.731 363.709 431.383 363.709C436.035 363.709 440.172 364.845 443.794 367.118C447.417 369.391 450.266 372.622 452.344 376.812C454.421 381.003 455.46 385.974 455.46 391.727ZM449.068 391.727C449.068 387.004 448.278 383.018 446.697 379.769C445.135 376.52 443.013 374.06 440.332 372.391C437.669 370.722 434.686 369.888 431.383 369.888C428.081 369.888 425.089 370.722 422.408 372.391C419.744 374.06 417.623 376.52 416.042 379.769C414.48 383.018 413.699 387.004 413.699 391.727C413.699 396.45 414.48 400.436 416.042 403.686C417.623 406.935 419.744 409.394 422.408 411.063C425.089 412.732 428.081 413.567 431.383 413.567C434.686 413.567 437.669 412.732 440.332 411.063C443.013 409.394 445.135 406.935 446.697 403.686C448.278 400.436 449.068 396.45 449.068 391.727ZM509.819 364.455V419H503.427L473.704 376.173H473.171V419H466.566V364.455H472.958L502.788 407.388H503.32V364.455H509.819ZM523.036 419V364.455H555.955V370.314H529.641V388.744H554.25V394.604H529.641V413.141H556.381V419H523.036ZM588.954 419V364.455H607.384C611.663 364.455 615.161 365.227 617.878 366.772C620.612 368.299 622.636 370.367 623.95 372.977C625.264 375.587 625.921 378.499 625.921 381.713C625.921 384.927 625.264 387.848 623.95 390.475C622.654 393.103 620.648 395.199 617.931 396.761C615.214 398.306 611.734 399.078 607.491 399.078H594.28V393.219H607.278C610.207 393.219 612.56 392.713 614.335 391.701C616.111 390.689 617.398 389.321 618.197 387.599C619.014 385.859 619.422 383.897 619.422 381.713C619.422 379.529 619.014 377.576 618.197 375.854C617.398 374.131 616.102 372.782 614.309 371.805C612.516 370.811 610.136 370.314 607.171 370.314H595.559V419H588.954ZM682.584 391.727C682.584 397.48 681.545 402.452 679.468 406.642C677.39 410.832 674.541 414.064 670.918 416.337C667.296 418.609 663.159 419.746 658.507 419.746C653.855 419.746 649.718 418.609 646.096 416.337C642.474 414.064 639.624 410.832 637.547 406.642C635.469 402.452 634.43 397.48 634.43 391.727C634.43 385.974 635.469 381.003 637.547 376.812C639.624 372.622 642.474 369.391 646.096 367.118C649.718 364.845 653.855 363.709 658.507 363.709C663.159 363.709 667.296 364.845 670.918 367.118C674.541 369.391 677.39 372.622 679.468 376.812C681.545 381.003 682.584 385.974 682.584 391.727ZM676.192 391.727C676.192 387.004 675.402 383.018 673.821 379.769C672.259 376.52 670.137 374.06 667.456 372.391C664.793 370.722 661.81 369.888 658.507 369.888C655.205 369.888 652.213 370.722 649.532 372.391C646.868 374.06 644.747 376.52 643.166 379.769C641.604 383.018 640.823 387.004 640.823 391.727C640.823 396.45 641.604 400.436 643.166 403.686C644.747 406.935 646.868 409.394 649.532 411.063C652.213 412.732 655.205 413.567 658.507 413.567C661.81 413.567 664.793 412.732 667.456 411.063C670.137 409.394 672.259 406.935 673.821 403.686C675.402 400.436 676.192 396.45 676.192 391.727ZM700.295 364.455V419H693.69V364.455H700.295ZM756.792 364.455V419H750.4L720.676 376.173H720.144V419H713.539V364.455H719.931L749.76 407.388H750.293V364.455H756.792ZM767.025 370.314V364.455H807.935V370.314H790.783V419H784.177V370.314H767.025ZM818.129 419V364.455H851.048V370.314H824.734V388.744H849.343V394.604H824.734V413.141H851.474V419H818.129ZM862.953 419V364.455H881.383C885.645 364.455 889.142 365.183 891.877 366.638C894.611 368.077 896.635 370.056 897.949 372.578C899.263 375.099 899.92 377.967 899.92 381.18C899.92 384.394 899.263 387.244 897.949 389.73C896.635 392.216 894.62 394.169 891.903 395.589C889.187 396.992 885.716 397.693 881.49 397.693H866.575V391.727H881.277C884.189 391.727 886.532 391.301 888.308 390.449C890.101 389.597 891.397 388.389 892.196 386.827C893.013 385.246 893.422 383.364 893.422 381.18C893.422 378.996 893.013 377.088 892.196 375.454C891.38 373.821 890.075 372.56 888.281 371.672C886.488 370.767 884.118 370.314 881.17 370.314H869.558V419H862.953ZM888.627 394.497L902.051 419H894.38L881.17 394.497H888.627ZM978.043 391.727C978.043 397.48 977.004 402.452 974.927 406.642C972.849 410.832 970 414.064 966.377 416.337C962.755 418.609 958.618 419.746 953.966 419.746C949.314 419.746 945.177 418.609 941.555 416.337C937.933 414.064 935.083 410.832 933.006 406.642C930.928 402.452 929.889 397.48 929.889 391.727C929.889 385.974 930.928 381.003 933.006 376.812C935.083 372.622 937.933 369.391 941.555 367.118C945.177 364.845 949.314 363.709 953.966 363.709C958.618 363.709 962.755 364.845 966.377 367.118C970 369.391 972.849 372.622 974.927 376.812C977.004 381.003 978.043 385.974 978.043 391.727ZM971.651 391.727C971.651 387.004 970.861 383.018 969.28 379.769C967.718 376.52 965.596 374.06 962.915 372.391C960.252 370.722 957.269 369.888 953.966 369.888C950.664 369.888 947.672 370.722 944.991 372.391C942.327 374.06 940.206 376.52 938.625 379.769C937.063 383.018 936.282 387.004 936.282 391.727C936.282 396.45 937.063 400.436 938.625 403.686C940.206 406.935 942.327 409.394 944.991 411.063C947.672 412.732 950.664 413.567 953.966 413.567C957.269 413.567 960.252 412.732 962.915 411.063C965.596 409.394 967.718 406.935 969.28 403.686C970.861 400.436 971.651 396.45 971.651 391.727ZM989.149 419V364.455H1021.86V370.314H995.754V388.744H1019.4V394.604H995.754V419H989.149ZM1056.5 419H1049.57L1069.6 364.455H1076.42L1096.45 419H1089.52L1073.22 373.084H1072.8L1056.5 419ZM1059.06 397.693H1086.97V403.553H1059.06V397.693ZM1104.94 419V364.455H1111.55V413.141H1136.91V419H1104.94ZM1147.13 419V364.455H1153.74V413.141H1179.09V419H1147.13ZM1207.43 370.314V364.455H1248.34V370.314H1231.19V419H1224.58V370.314H1207.43ZM1265.14 364.455V419H1258.53V364.455H1265.14ZM1278.38 364.455H1286.27L1304.8 409.732H1305.44L1323.98 364.455H1331.86V419H1325.68V377.558H1325.15L1308.11 419H1302.14L1285.09 377.558H1284.56V419H1278.38V364.455ZM1345.11 419V364.455H1378.03V370.314H1351.71V388.744H1376.32V394.604H1351.71V413.141H1378.45V419H1345.11Z" fill="#192335"/>
<path d="M43.892 381.5L42.9415 381.811L43.1668 382.5H43.892V381.5ZM41.5749 376.679L40.7381 377.227L40.7421 377.233L40.7461 377.239L41.5749 376.679ZM38.1925 373.004L37.577 373.792L37.5822 373.796L38.1925 373.004ZM33.7713 370.687L34.0783 369.735H34.0783L33.7713 370.687ZM13.2102 379.769L14.1114 380.202V380.202L13.2102 379.769ZM13.2369 403.686L12.3376 404.123V404.123L13.2369 403.686ZM37.0206 411.569L37.509 412.442L37.5112 412.441L37.0206 411.569ZM42.6136 405.87L41.7362 405.39L41.735 405.392L42.6136 405.87ZM44.6378 397.161L44.8438 396.182L43.6378 395.928V397.161H44.6378ZM46.6619 397.587V398.587L46.8679 396.608L46.6619 397.587ZM30.2557 397.587H29.2557V398.587H30.2557V397.587ZM30.2557 391.727V390.727H29.2557V391.727H30.2557ZM51.0298 391.727H52.0298V390.727H51.0298V391.727ZM48.1534 409.305L47.2875 408.805L47.2855 408.809L48.1534 409.305ZM40.2699 417.029L40.7468 417.908L40.7484 417.907L40.2699 417.029ZM16.0334 416.337L15.5038 417.185L15.5056 417.186L16.0334 416.337ZM7.51065 406.642L6.6102 407.077L6.6117 407.08L7.51065 406.642ZM6.20561 380.088L5.25839 379.768L5.25742 379.771L6.20561 380.088ZM11.1594 371.246L11.9117 371.905V371.905L11.1594 371.246ZM36.3814 365.014L36.051 365.958L36.0591 365.96L36.3814 365.014ZM43.0664 368.663L42.4374 369.44L42.4452 369.446L43.0664 368.663ZM47.9936 374.282L47.1367 374.798L47.1386 374.801L47.9936 374.282ZM50.7102 381.5V382.5H51.9156L51.693 381.315L50.7102 381.5ZM43.892 381.5L44.8426 381.189C44.2307 379.317 43.4194 377.625 42.4038 376.12L41.5749 376.679L40.7461 377.239C41.648 378.575 42.3815 380.097 42.9415 381.811L43.892 381.5ZM41.5749 376.679L42.4117 376.132C41.4116 374.603 40.2085 373.295 38.8027 372.212L38.1925 373.004L37.5822 373.796C38.8043 374.737 39.8561 375.879 40.7381 377.227L41.5749 376.679ZM38.1925 373.004L38.8079 372.216C37.4143 371.128 35.835 370.302 34.0783 369.735L33.7713 370.687L33.4643 371.638C35.0102 372.137 36.3783 372.856 37.577 373.792L38.1925 373.004ZM33.7713 370.687L34.0783 369.735C32.3154 369.166 30.3992 368.888 28.3381 368.888V369.888V370.888C30.2187 370.888 31.9247 371.142 33.4643 371.638L33.7713 370.687ZM28.3381 369.888V368.888C24.9243 368.888 21.7996 369.772 18.9888 371.546L19.5224 372.391L20.0559 373.237C22.5363 371.672 25.2888 370.888 28.3381 370.888V369.888ZM19.5224 372.391L18.9888 371.546C16.1613 373.329 13.9402 375.943 12.309 379.335L13.2102 379.769L14.1114 380.202C15.6052 377.096 17.5922 374.791 20.0559 373.237L19.5224 372.391ZM13.2102 379.769L12.309 379.335C10.6646 382.755 9.86648 386.899 9.86648 391.727H10.8665H11.8665C11.8665 387.11 12.6309 383.281 14.1114 380.202L13.2102 379.769ZM10.8665 391.727H9.86648C9.86648 396.557 10.6739 400.702 12.3376 404.123L13.2369 403.686L14.1361 403.248C12.6393 400.171 11.8665 396.343 11.8665 391.727H10.8665ZM13.2369 403.686L12.3376 404.123C13.9889 407.518 16.2482 410.132 19.1296 411.914L19.6555 411.063L20.1815 410.213C17.6652 408.657 15.6454 406.352 14.1361 403.248L13.2369 403.686ZM19.6555 411.063L19.1296 411.914C21.9966 413.687 25.2171 414.567 28.7642 414.567V413.567V412.567C25.5642 412.567 22.7122 411.778 20.1815 410.213L19.6555 411.063ZM28.7642 413.567V414.567C32.0349 414.567 34.9599 413.869 37.509 412.442L37.0206 411.569L36.5322 410.697C34.3228 411.933 31.7435 412.567 28.7642 412.567V413.567ZM37.0206 411.569L37.5112 412.441C40.0744 410.998 42.0721 408.96 43.4923 406.347L42.6136 405.87L41.735 405.392C40.4918 407.68 38.7609 409.442 36.53 410.698L37.0206 411.569ZM42.6136 405.87L43.491 406.349C44.9347 403.709 45.6378 400.635 45.6378 397.161H44.6378H43.6378C43.6378 400.362 42.9914 403.094 41.7362 405.39L42.6136 405.87ZM44.6378 397.161L44.4318 398.139L46.4559 398.565L46.6619 397.587L46.8679 396.608L44.8438 396.182L44.6378 397.161ZM46.6619 397.587V396.587H30.2557V397.587V398.587H46.6619V397.587ZM30.2557 397.587H31.2557V391.727H30.2557H29.2557V397.587H30.2557ZM30.2557 391.727V392.727H51.0298V391.727V390.727H30.2557V391.727ZM51.0298 391.727H50.0298V397.587H51.0298H52.0298V391.727H51.0298ZM51.0298 397.587H50.0298C50.0298 401.934 49.1032 405.661 47.2875 408.805L48.1534 409.305L49.0194 409.806C51.0388 406.309 52.0298 402.224 52.0298 397.587H51.0298ZM48.1534 409.305L47.2855 408.809C45.4775 411.968 42.9844 414.411 39.7914 416.151L40.2699 417.029L40.7484 417.907C44.267 415.99 47.0296 413.283 49.0214 409.802L48.1534 409.305ZM40.2699 417.029L39.793 416.15C36.6208 417.871 32.9537 418.746 28.7642 418.746V419.746V420.746C33.2394 420.746 37.2428 419.809 40.7468 417.908L40.2699 417.029ZM28.7642 419.746V418.746C24.0979 418.746 20.0417 417.65 16.5612 415.487L16.0334 416.337L15.5056 417.186C19.3404 419.569 23.7714 420.746 28.7642 420.746V419.746ZM16.0334 416.337L16.563 415.488C13.0959 413.324 10.3767 410.241 8.40961 406.204L7.51065 406.642L6.6117 407.08C8.72843 411.424 11.691 414.804 15.5038 417.185L16.0334 416.337ZM7.51065 406.642L8.4111 406.207C6.46609 402.181 5.47443 397.364 5.47443 391.727H4.47443H3.47443C3.47443 397.596 4.50692 402.723 6.6102 407.077L7.51065 406.642ZM4.47443 391.727H5.47443C5.47443 387.501 6.03974 383.731 7.1538 380.406L6.20561 380.088L5.25742 379.771C4.06324 383.335 3.47443 387.324 3.47443 391.727H4.47443ZM6.20561 380.088L7.15283 380.409C8.28804 377.055 9.87817 374.227 11.9117 371.905L11.1594 371.246L10.4072 370.587C8.17936 373.131 6.46693 376.197 5.25839 379.768L6.20561 380.088ZM11.1594 371.246L11.9117 371.905C13.9484 369.58 16.3523 367.803 19.13 366.567L18.7234 365.653L18.3167 364.739C15.2705 366.095 12.6319 368.047 10.4072 370.587L11.1594 371.246ZM18.7234 365.653L19.13 366.567C21.9019 365.333 24.9665 364.709 28.3381 364.709V363.709V362.709C24.7139 362.709 21.3686 363.381 18.3167 364.739L18.7234 365.653ZM28.3381 363.709V364.709C31.1123 364.709 33.6808 365.128 36.051 365.958L36.3814 365.014L36.7117 364.07C34.1104 363.16 31.3166 362.709 28.3381 362.709V363.709ZM36.3814 365.014L36.0591 365.96C38.4572 366.777 40.5805 367.938 42.4374 369.44L43.0664 368.663L43.6954 367.885C41.646 366.227 39.3127 364.955 36.7037 364.067L36.3814 365.014ZM43.0664 368.663L42.4452 369.446C44.3208 370.933 45.8838 372.715 47.1367 374.798L47.9936 374.282L48.8505 373.767C47.4756 371.481 45.7538 369.517 43.6877 367.879L43.0664 368.663ZM47.9936 374.282L47.1386 374.801C48.3864 376.858 49.2511 379.15 49.7274 381.685L50.7102 381.5L51.693 381.315C51.1751 378.559 50.2287 376.039 48.8486 373.764L47.9936 374.282ZM50.7102 381.5V380.5H43.892V381.5V382.5H50.7102V381.5ZM62.3424 419H61.3424V420H62.3424V419ZM62.3424 364.455V363.455H61.3424V364.455H62.3424ZM91.2664 366.638L90.7964 367.521L90.8009 367.524L91.2664 366.638ZM97.3389 372.578L96.4521 373.04V373.04L97.3389 372.578ZM97.3389 389.73L96.4548 389.262V389.262L97.3389 389.73ZM91.2931 395.589L91.7519 396.478L91.7564 396.475L91.2931 395.589ZM65.9646 397.693H64.9646V398.693H65.9646V397.693ZM65.9646 391.727V390.727H64.9646V391.727H65.9646ZM87.6975 390.449L87.2683 389.546L87.2648 389.547L87.6975 390.449ZM91.586 386.827L90.6977 386.368L90.6957 386.371L91.586 386.827ZM87.6709 371.672L87.2201 372.565L87.2272 372.568L87.6709 371.672ZM68.9475 370.314V369.314H67.9475V370.314H68.9475ZM68.9475 419V420H69.9475V419H68.9475ZM88.0171 394.497L88.8942 394.017L88.6095 393.497H88.0171V394.497ZM101.44 419V420H103.128L102.317 418.52L101.44 419ZM93.77 419L92.8898 419.475L93.173 420H93.77V419ZM80.5597 394.497V393.497H78.8845L79.6795 394.972L80.5597 394.497ZM62.3424 419H63.3424V364.455H62.3424H61.3424V419H62.3424ZM62.3424 364.455V365.455H80.7728V364.455V363.455H62.3424V364.455ZM80.7728 364.455V365.455C84.9287 365.455 88.2508 366.166 90.7964 367.521L91.2664 366.638L91.7364 365.756C88.8133 364.199 85.1396 363.455 80.7728 363.455V364.455ZM91.2664 366.638L90.8009 367.524C93.3715 368.876 95.2404 370.715 96.4521 373.04L97.3389 372.578L98.2257 372.116C96.8094 369.398 94.6301 367.278 91.7319 365.753L91.2664 366.638ZM97.3389 372.578L96.4521 373.04C97.6824 375.401 98.3098 378.106 98.3098 381.18H99.3098H100.31C100.31 377.827 99.6232 374.797 98.2257 372.116L97.3389 372.578ZM99.3098 381.18H98.3098C98.3098 384.255 97.6823 386.94 96.4548 389.262L97.3389 389.73L98.223 390.197C99.6233 387.548 100.31 384.534 100.31 381.18H99.3098ZM97.3389 389.73L96.4548 389.262C95.244 391.553 93.3839 393.367 90.8297 394.703L91.2931 395.589L91.7564 396.475C94.6355 394.97 96.8059 392.878 98.223 390.197L97.3389 389.73ZM91.2931 395.589L90.8343 394.701C88.3032 396.007 85.0033 396.693 80.8793 396.693V397.693V398.693C85.2071 398.693 88.8497 397.976 91.7518 396.478L91.2931 395.589ZM80.8793 397.693V396.693H65.9646V397.693V398.693H80.8793V397.693ZM65.9646 397.693H66.9646V391.727H65.9646H64.9646V397.693H65.9646ZM65.9646 391.727V392.727H80.6663V391.727V390.727H65.9646V391.727ZM80.6663 391.727V392.727C83.6622 392.727 86.1708 392.291 88.1303 391.35L87.6975 390.449L87.2648 389.547C85.6732 390.311 83.4942 390.727 80.6663 390.727V391.727ZM87.6975 390.449L88.1268 391.352C90.0915 390.418 91.5641 389.066 92.4764 387.282L91.586 386.827L90.6957 386.371C90.0099 387.713 88.8902 388.775 87.2683 389.546L87.6975 390.449ZM91.586 386.827L92.4744 387.286C93.3794 385.535 93.8112 383.488 93.8112 381.18H92.8112H91.8112C91.8112 383.24 91.4262 384.958 90.6977 386.368L91.586 386.827ZM92.8112 381.18H93.8112C93.8112 378.871 93.379 376.804 92.4805 375.007L91.586 375.454L90.6916 375.901C91.4266 377.371 91.8112 379.122 91.8112 381.18H92.8112ZM91.586 375.454L92.4805 375.007C91.5569 373.16 90.0833 371.751 88.1146 370.776L87.6709 371.672L87.2272 372.568C88.8452 373.369 89.9816 374.481 90.6916 375.901L91.586 375.454ZM87.6709 371.672L88.1216 370.78C86.1386 369.778 83.5962 369.314 80.5597 369.314V370.314V371.314C83.4182 371.314 85.6165 371.755 87.2202 372.565L87.6709 371.672ZM80.5597 370.314V369.314H68.9475V370.314V371.314H80.5597V370.314ZM68.9475 370.314H67.9475V419H68.9475H69.9475V370.314H68.9475ZM68.9475 419V418H62.3424V419V420H68.9475V419ZM88.0171 394.497L87.1401 394.978L100.563 419.48L101.44 419L102.317 418.52L88.8942 394.017L88.0171 394.497ZM101.44 419V418H93.77V419V420H101.44V419ZM93.77 419L94.6502 418.525L81.44 394.023L80.5597 394.497L79.6795 394.972L92.8898 419.475L93.77 419ZM80.5597 394.497V395.497H88.0171V394.497V393.497H80.5597V394.497ZM110.316 419H109.316V420H110.316V419ZM110.316 364.455V363.455H109.316V364.455H110.316ZM143.235 364.455H144.235V363.455H143.235V364.455ZM143.235 370.314V371.314H144.235V370.314H143.235ZM116.921 370.314V369.314H115.921V370.314H116.921ZM116.921 388.744H115.921V389.744H116.921V388.744ZM141.531 388.744H142.531V387.744H141.531V388.744ZM141.531 394.604V395.604H142.531V394.604H141.531ZM116.921 394.604V393.604H115.921V394.604H116.921ZM116.921 413.141H115.921V414.141H116.921V413.141ZM143.661 413.141H144.661V412.141H143.661V413.141ZM143.661 419V420H144.661V419H143.661ZM110.316 419H111.316V364.455H110.316H109.316V419H110.316ZM110.316 364.455V365.455H143.235V364.455V363.455H110.316V364.455ZM143.235 364.455H142.235V370.314H143.235H144.235V364.455H143.235ZM143.235 370.314V369.314H116.921V370.314V371.314H143.235V370.314ZM116.921 370.314H115.921V388.744H116.921H117.921V370.314H116.921ZM116.921 388.744V389.744H141.531V388.744V387.744H116.921V388.744ZM141.531 388.744H140.531V394.604H141.531H142.531V388.744H141.531ZM141.531 394.604V393.604H116.921V394.604V395.604H141.531V394.604ZM116.921 394.604H115.921V413.141H116.921H117.921V394.604H116.921ZM116.921 413.141V414.141H143.661V413.141V412.141H116.921V413.141ZM143.661 413.141H142.661V419H143.661H144.661V413.141H143.661ZM143.661 419V418H110.316V419V420H143.661V419ZM157.377 419V420H158.084L158.32 419.335L157.377 419ZM150.453 419L149.514 418.655L149.02 420H150.453V419ZM170.481 364.455V363.455H169.783L169.542 364.11L170.481 364.455ZM177.299 364.455L178.238 364.11L177.997 363.455H177.299V364.455ZM197.328 419V420H198.76L198.266 418.655L197.328 419ZM190.403 419L189.461 419.335L189.697 420H190.403V419ZM174.103 373.084L175.046 372.749L174.809 372.084H174.103V373.084ZM173.677 373.084V372.084H172.971L172.735 372.749L173.677 373.084ZM159.934 397.693V396.693H158.934V397.693H159.934ZM187.846 397.693H188.846V396.693H187.846V397.693ZM187.846 403.553V404.553H188.846V403.553H187.846ZM159.934 403.553H158.934V404.553H159.934V403.553ZM157.377 419V418H150.453V419V420H157.377V419ZM150.453 419L151.391 419.345L171.42 364.799L170.481 364.455L169.542 364.11L149.514 418.655L150.453 419ZM170.481 364.455V365.455H177.299V364.455V363.455H170.481V364.455ZM177.299 364.455L176.361 364.799L196.389 419.345L197.328 419L198.266 418.655L178.238 364.11L177.299 364.455ZM197.328 419V418H190.403V419V420H197.328V419ZM190.403 419L191.345 418.665L175.046 372.749L174.103 373.084L173.161 373.418L189.461 419.335L190.403 419ZM174.103 373.084V372.084H173.677V373.084V374.084H174.103V373.084ZM173.677 373.084L172.735 372.749L156.435 418.665L157.377 419L158.32 419.335L174.62 373.418L173.677 373.084ZM159.934 397.693V398.693H187.846V397.693V396.693H159.934V397.693ZM187.846 397.693H186.846V403.553H187.846H188.846V397.693H187.846ZM187.846 403.553V402.553H159.934V403.553V404.553H187.846V403.553ZM159.934 403.553H160.934V397.693H159.934H158.934V403.553H159.934ZM196.469 370.314H195.469V371.314H196.469V370.314ZM196.469 364.455V363.455H195.469V364.455H196.469ZM237.378 364.455H238.378V363.455H237.378V364.455ZM237.378 370.314V371.314H238.378V370.314H237.378ZM220.226 370.314V369.314H219.226V370.314H220.226ZM220.226 419V420H221.226V419H220.226ZM213.621 419H212.621V420H213.621V419ZM213.621 370.314H214.621V369.314H213.621V370.314ZM196.469 370.314H197.469V364.455H196.469H195.469V370.314H196.469ZM196.469 364.455V365.455H237.378V364.455V363.455H196.469V364.455ZM237.378 364.455H236.378V370.314H237.378H238.378V364.455H237.378ZM237.378 370.314V369.314H220.226V370.314V371.314H237.378V370.314ZM220.226 370.314H219.226V419H220.226H221.226V370.314H220.226ZM220.226 419V418H213.621V419V420H220.226V419ZM213.621 419H214.621V370.314H213.621H212.621V419H213.621ZM213.621 370.314V369.314H196.469V370.314V371.314H213.621V370.314ZM247.572 419H246.572V420H247.572V419ZM247.572 364.455V363.455H246.572V364.455H247.572ZM280.491 364.455H281.491V363.455H280.491V364.455ZM280.491 370.314V371.314H281.491V370.314H280.491ZM254.177 370.314V369.314H253.177V370.314H254.177ZM254.177 388.744H253.177V389.744H254.177V388.744ZM278.786 388.744H279.786V387.744H278.786V388.744ZM278.786 394.604V395.604H279.786V394.604H278.786ZM254.177 394.604V393.604H253.177V394.604H254.177ZM254.177 413.141H253.177V414.141H254.177V413.141ZM280.917 413.141H281.917V412.141H280.917V413.141ZM280.917 419V420H281.917V419H280.917ZM247.572 419H248.572V364.455H247.572H246.572V419H247.572ZM247.572 364.455V365.455H280.491V364.455V363.455H247.572V364.455ZM280.491 364.455H279.491V370.314H280.491H281.491V364.455H280.491ZM280.491 370.314V369.314H254.177V370.314V371.314H280.491V370.314ZM254.177 370.314H253.177V388.744H254.177H255.177V370.314H254.177ZM254.177 388.744V389.744H278.786V388.744V387.744H254.177V388.744ZM278.786 388.744H277.786V394.604H278.786H279.786V388.744H278.786ZM278.786 394.604V393.604H254.177V394.604V395.604H278.786V394.604ZM254.177 394.604H253.177V413.141H254.177H255.177V394.604H254.177ZM254.177 413.141V414.141H280.917V413.141V412.141H254.177V413.141ZM280.917 413.141H279.917V419H280.917H281.917V413.141H280.917ZM280.917 419V418H247.572V419V420H280.917V419ZM322.226 378.091L321.233 378.209L321.337 379.091H322.226V378.091ZM318.337 371.805L317.789 372.641V372.641L318.337 371.805ZM303.635 370.74L303.239 369.822L303.236 369.823L303.635 370.74ZM299.427 373.963L298.624 373.368L298.619 373.375L299.427 373.963ZM298.975 382.379L298.14 382.93L298.146 382.939L298.151 382.947L298.975 382.379ZM301.691 384.962L301.159 385.809L301.169 385.815L301.691 384.962ZM305.154 386.64L304.809 387.579L304.821 387.583L305.154 386.64ZM308.483 387.679L308.743 386.713L308.737 386.712L308.483 387.679ZM314.023 389.17L313.763 390.136L313.769 390.138L314.023 389.17ZM318.763 390.715L318.41 391.651L318.413 391.652L318.763 390.715ZM323.797 393.405L323.217 394.22L323.228 394.227L323.797 393.405ZM327.792 397.72L328.651 397.208V397.208L327.792 397.72ZM327.046 412.182L326.208 411.637L326.205 411.642L327.046 412.182ZM320.335 417.855L319.905 416.952L319.903 416.953L320.335 417.855ZM299.507 418.068L299.102 418.982L299.104 418.983L299.507 418.068ZM292.796 412.794L291.983 413.377L291.986 413.381L292.796 412.794ZM290.052 404.938V403.938H288.978L289.055 405.009L290.052 404.938ZM296.871 404.938L297.867 404.852L297.788 403.938H296.871V404.938ZM298.948 410.051L298.203 410.718L298.212 410.728L298.948 410.051ZM303.582 413.034L303.25 413.977L303.261 413.981L303.582 413.034ZM316.446 412.768L316.823 413.694L316.83 413.691L316.446 412.768ZM321.214 409.305L321.996 409.928L322 409.923L321.214 409.305ZM321.453 399.664L322.2 398.999V398.999L321.453 399.664ZM317.458 396.894L317.063 397.813V397.813L317.458 396.894ZM312.105 395.03L311.83 395.991L311.837 395.993L312.105 395.03ZM305.393 393.112L305.117 394.073L305.119 394.074L305.393 393.112ZM295.273 387.865L294.598 388.603V388.603L295.273 387.865ZM294.021 370.953L293.213 370.364L293.212 370.365L294.021 370.953ZM300.732 365.626L301.142 366.539L301.145 366.537L300.732 365.626ZM319.562 365.6L319.144 366.508L319.149 366.51L319.562 365.6ZM326.061 370.713L325.256 371.307L325.259 371.311L326.061 370.713ZM328.618 378.091V379.091H329.651L329.617 378.059L328.618 378.091ZM322.226 378.091L323.219 377.973C322.864 374.981 321.405 372.623 318.886 370.969L318.337 371.805L317.789 372.641C319.814 373.971 320.948 375.803 321.233 378.209L322.226 378.091ZM318.337 371.805L318.886 370.969C316.418 369.35 313.429 368.568 309.974 368.568V369.568V370.568C313.124 370.568 315.711 371.278 317.789 372.641L318.337 371.805ZM309.974 369.568V368.568C307.453 368.568 305.2 368.976 303.239 369.822L303.635 370.74L304.032 371.658C305.693 370.942 307.666 370.568 309.974 370.568V369.568ZM303.635 370.74L303.236 369.823C301.307 370.664 299.755 371.84 298.624 373.368L299.427 373.963L300.231 374.558C301.124 373.351 302.378 372.379 304.035 371.657L303.635 370.74ZM299.427 373.963L298.619 373.375C297.496 374.918 296.936 376.679 296.936 378.624H297.936H298.936C298.936 377.088 299.37 375.742 300.236 374.551L299.427 373.963ZM297.936 378.624H296.936C296.936 380.244 297.323 381.694 298.14 382.93L298.975 382.379L299.809 381.827C299.241 380.968 298.936 379.915 298.936 378.624H297.936ZM298.975 382.379L298.151 382.947C298.942 384.093 299.948 385.047 301.159 385.809L301.691 384.962L302.224 384.116C301.233 383.493 300.428 382.725 299.798 381.811L298.975 382.379ZM301.691 384.962L301.169 385.815C302.326 386.524 303.539 387.112 304.809 387.579L305.154 386.64L305.499 385.702C304.353 385.281 303.259 384.75 302.214 384.11L301.691 384.962ZM305.154 386.64L304.821 387.583C306.048 388.017 307.185 388.371 308.228 388.646L308.483 387.679L308.737 386.712C307.757 386.454 306.673 386.116 305.486 385.697L305.154 386.64ZM308.483 387.679L308.223 388.645L313.763 390.136L314.023 389.17L314.283 388.205L308.743 386.713L308.483 387.679ZM314.023 389.17L313.769 390.138C315.148 390.5 316.694 391.003 318.41 391.651L318.763 390.715L319.117 389.78C317.352 389.113 315.738 388.587 314.276 388.203L314.023 389.17ZM318.763 390.715L318.413 391.652C320.086 392.277 321.687 393.132 323.218 394.22L323.797 393.405L324.377 392.59C322.711 391.406 320.956 390.467 319.113 389.778L318.763 390.715ZM323.797 393.405L323.228 394.227C324.721 395.261 325.956 396.592 326.933 398.232L327.792 397.72L328.651 397.208C327.533 395.332 326.105 393.786 324.366 392.583L323.797 393.405ZM327.792 397.72L326.933 398.232C327.868 399.8 328.363 401.771 328.363 404.192H329.363H330.363C330.363 401.499 329.811 399.155 328.651 397.208L327.792 397.72ZM329.363 404.192H328.363C328.363 406.954 327.643 409.427 326.208 411.637L327.046 412.182L327.885 412.726C329.539 410.178 330.363 407.325 330.363 404.192H329.363ZM327.046 412.182L326.205 411.642C324.793 413.841 322.711 415.617 319.905 416.952L320.335 417.855L320.764 418.758C323.854 417.287 326.245 415.281 327.888 412.722L327.046 412.182ZM320.335 417.855L319.903 416.953C317.141 418.275 313.737 418.959 309.655 418.959V419.959V420.959C313.953 420.959 317.669 420.24 320.767 418.757L320.335 417.855ZM309.655 419.959V418.959C305.854 418.959 302.615 418.345 299.911 417.153L299.507 418.068L299.104 418.983C302.117 420.312 305.643 420.959 309.655 420.959V419.959ZM299.507 418.068L299.913 417.154C297.214 415.956 295.124 414.304 293.605 412.208L292.796 412.794L291.986 413.381C293.734 415.795 296.119 417.658 299.102 418.982L299.507 418.068ZM292.796 412.794L293.608 412.212C292.109 410.119 291.251 407.68 291.05 404.866L290.052 404.938L289.055 405.009C289.28 408.161 290.251 410.96 291.983 413.377L292.796 412.794ZM290.052 404.938V405.938H296.871V404.938V403.938H290.052V404.938ZM296.871 404.938L295.874 405.023C296.068 407.267 296.831 409.185 298.203 410.718L298.948 410.051L299.693 409.384C298.65 408.219 298.029 406.727 297.867 404.852L296.871 404.938ZM298.948 410.051L298.212 410.728C299.558 412.191 301.246 413.271 303.25 413.977L303.582 413.034L303.915 412.091C302.19 411.483 300.788 410.575 299.684 409.374L298.948 410.051ZM303.582 413.034L303.261 413.981C305.255 414.658 307.389 414.993 309.655 414.993V413.993V412.993C307.588 412.993 305.673 412.688 303.904 412.087L303.582 413.034ZM309.655 413.993V414.993C312.284 414.993 314.679 414.567 316.823 413.694L316.446 412.768L316.069 411.842C314.2 412.602 312.068 412.993 309.655 412.993V413.993ZM316.446 412.768L316.83 413.691C318.969 412.802 320.704 411.553 321.996 409.928L321.214 409.305L320.431 408.683C319.38 410.005 317.937 411.065 316.062 411.844L316.446 412.768ZM321.214 409.305L322 409.923C323.317 408.247 323.971 406.286 323.971 404.085H322.971H321.971C321.971 405.861 321.454 407.381 320.427 408.688L321.214 409.305ZM322.971 404.085H323.971C323.971 402.078 323.405 400.352 322.2 398.999L321.453 399.664L320.707 400.329C321.526 401.249 321.971 402.47 321.971 404.085H322.971ZM321.453 399.664L322.2 398.999C321.075 397.735 319.615 396.733 317.853 395.976L317.458 396.894L317.063 397.813C318.604 398.476 319.808 399.32 320.707 400.329L321.453 399.664ZM317.458 396.894L317.853 395.976C316.157 395.246 314.329 394.61 312.373 394.066L312.105 395.03L311.837 395.993C313.716 396.515 315.457 397.122 317.063 397.813L317.458 396.894ZM312.105 395.03L312.38 394.068L305.668 392.151L305.393 393.112L305.119 394.074L311.83 395.991L312.105 395.03ZM305.393 393.112L305.67 392.151C301.511 390.956 298.289 389.268 295.947 387.127L295.273 387.865L294.598 388.603C297.228 391.008 300.752 392.818 305.117 394.073L305.393 393.112ZM295.273 387.865L295.947 387.127C293.689 385.063 292.544 382.366 292.544 378.943H291.544H290.544C290.544 382.871 291.885 386.123 294.598 388.603L295.273 387.865ZM291.544 378.943H292.544C292.544 376.081 293.314 373.628 294.83 371.541L294.021 370.953L293.212 370.365C291.425 372.824 290.544 375.697 290.544 378.943H291.544ZM294.021 370.953L294.829 371.542C296.387 369.404 298.482 367.734 301.142 366.539L300.732 365.626L300.323 364.714C297.372 366.04 294.993 367.921 293.213 370.364L294.021 370.953ZM300.732 365.626L301.145 366.537C303.823 365.324 306.832 364.709 310.187 364.709V363.709V362.709C306.582 362.709 303.288 363.372 300.32 364.715L300.732 365.626ZM310.187 363.709V364.709C313.582 364.709 316.561 365.317 319.144 366.508L319.562 365.6L319.981 364.692C317.095 363.361 313.823 362.709 310.187 362.709V363.709ZM319.562 365.6L319.149 366.51C321.746 367.691 323.771 369.293 325.256 371.307L326.061 370.713L326.866 370.12C325.155 367.801 322.847 365.995 319.976 364.689L319.562 365.6ZM326.061 370.713L325.259 371.311C326.75 373.31 327.536 375.571 327.618 378.123L328.618 378.091L329.617 378.059C329.522 375.106 328.603 372.449 326.862 370.116L326.061 370.713ZM328.618 378.091V377.091H322.226V378.091V379.091H328.618V378.091ZM337.24 370.314H336.24V371.314H337.24V370.314ZM337.24 364.455V363.455H336.24V364.455H337.24ZM378.149 364.455H379.149V363.455H378.149V364.455ZM378.149 370.314V371.314H379.149V370.314H378.149ZM360.997 370.314V369.314H359.997V370.314H360.997ZM360.997 419V420H361.997V419H360.997ZM354.392 419H353.392V420H354.392V419ZM354.392 370.314H355.392V369.314H354.392V370.314ZM337.24 370.314H338.24V364.455H337.24H336.24V370.314H337.24ZM337.24 364.455V365.455H378.149V364.455V363.455H337.24V364.455ZM378.149 364.455H377.149V370.314H378.149H379.149V364.455H378.149ZM378.149 370.314V369.314H360.997V370.314V371.314H378.149V370.314ZM360.997 370.314H359.997V419H360.997H361.997V370.314H360.997ZM360.997 419V418H354.392V419V420H360.997V419ZM354.392 419H355.392V370.314H354.392H353.392V419H354.392ZM354.392 370.314V369.314H337.24V370.314V371.314H354.392V370.314ZM452.344 406.642L451.448 406.198V406.198L452.344 406.642ZM443.794 416.337L444.326 417.184V417.184L443.794 416.337ZM418.972 416.337L418.44 417.184V417.184L418.972 416.337ZM410.423 406.642L411.319 406.198V406.198L410.423 406.642ZM443.794 367.118L444.326 366.271V366.271L443.794 367.118ZM452.344 376.812L451.448 377.257V377.257L452.344 376.812ZM446.697 379.769L445.796 380.202L445.798 380.206L446.697 379.769ZM440.332 372.391L439.801 373.239L439.804 373.24L440.332 372.391ZM422.408 372.391L421.879 371.542L421.877 371.544L422.408 372.391ZM416.042 379.769L415.143 379.331L415.141 379.335L416.042 379.769ZM416.042 403.686L415.141 404.119L415.143 404.123L416.042 403.686ZM422.408 411.063L421.877 411.911L421.879 411.912L422.408 411.063ZM440.332 411.063L439.804 410.214L439.801 410.216L440.332 411.063ZM446.697 403.686L445.798 403.248L445.796 403.252L446.697 403.686ZM455.46 391.727H454.46C454.46 397.361 453.443 402.174 451.448 406.198L452.344 406.642L453.24 407.086C455.399 402.73 456.46 397.599 456.46 391.727H455.46ZM452.344 406.642L451.448 406.198C449.444 410.239 446.714 413.324 443.263 415.49L443.794 416.337L444.326 417.184C448.119 414.804 451.088 411.426 453.24 407.086L452.344 406.642ZM443.794 416.337L443.263 415.49C439.814 417.654 435.864 418.746 431.383 418.746V419.746V420.746C436.206 420.746 440.531 419.565 444.326 417.184L443.794 416.337ZM431.383 419.746V418.746C426.902 418.746 422.952 417.654 419.503 415.49L418.972 416.337L418.44 417.184C422.236 419.565 426.56 420.746 431.383 420.746V419.746ZM418.972 416.337L419.503 415.49C416.052 413.324 413.322 410.239 411.319 406.198L410.423 406.642L409.527 407.086C411.678 411.426 414.647 414.804 418.44 417.184L418.972 416.337ZM410.423 406.642L411.319 406.198C409.323 402.174 408.306 397.361 408.306 391.727H407.306H406.306C406.306 397.599 407.367 402.73 409.527 407.086L410.423 406.642ZM407.306 391.727H408.306C408.306 386.094 409.323 381.281 411.319 377.257L410.423 376.812L409.527 376.368C407.367 380.725 406.306 385.855 406.306 391.727H407.306ZM410.423 376.812L411.319 377.257C413.322 373.216 416.052 370.131 419.503 367.965L418.972 367.118L418.44 366.271C414.647 368.651 411.678 372.029 409.527 376.368L410.423 376.812ZM418.972 367.118L419.503 367.965C422.952 365.801 426.902 364.709 431.383 364.709V363.709V362.709C426.56 362.709 422.236 363.889 418.44 366.271L418.972 367.118ZM431.383 363.709V364.709C435.864 364.709 439.814 365.801 443.263 367.965L443.794 367.118L444.326 366.271C440.531 363.889 436.206 362.709 431.383 362.709V363.709ZM443.794 367.118L443.263 367.965C446.714 370.131 449.444 373.216 451.448 377.257L452.344 376.812L453.24 376.368C451.088 372.029 448.119 368.651 444.326 366.271L443.794 367.118ZM452.344 376.812L451.448 377.257C453.443 381.281 454.46 386.094 454.46 391.727H455.46H456.46C456.46 385.855 455.399 380.725 453.24 376.368L452.344 376.812ZM449.068 391.727H450.068C450.068 386.897 449.26 382.752 447.597 379.331L446.697 379.769L445.798 380.206C447.295 383.284 448.068 387.111 448.068 391.727H449.068ZM446.697 379.769L447.599 379.335C445.966 375.94 443.725 373.325 440.861 371.542L440.332 372.391L439.804 373.24C442.302 374.795 444.304 377.099 445.796 380.202L446.697 379.769ZM440.332 372.391L440.863 371.544C438.032 369.77 434.864 368.888 431.383 368.888V369.888V370.888C434.508 370.888 437.305 371.675 439.801 373.239L440.332 372.391ZM431.383 369.888V368.888C427.903 368.888 424.726 369.77 421.879 371.542L422.408 372.391L422.936 373.24C425.451 371.675 428.258 370.888 431.383 370.888V369.888ZM422.408 372.391L421.877 371.544C419.032 373.327 416.793 375.939 415.143 379.331L416.042 379.769L416.942 380.206C418.452 377.1 420.457 374.794 422.939 373.239L422.408 372.391ZM416.042 379.769L415.141 379.335C413.497 382.755 412.699 386.899 412.699 391.727H413.699H414.699C414.699 387.11 415.463 383.281 416.943 380.202L416.042 379.769ZM413.699 391.727H412.699C412.699 396.556 413.497 400.699 415.141 404.119L416.042 403.686L416.943 403.252C415.463 400.173 414.699 396.345 414.699 391.727H413.699ZM416.042 403.686L415.143 404.123C416.793 407.515 419.032 410.128 421.877 411.911L422.408 411.063L422.939 410.216C420.457 408.66 418.452 406.355 416.942 403.248L416.042 403.686ZM422.408 411.063L421.879 411.912C424.726 413.685 427.903 414.567 431.383 414.567V413.567V412.567C428.258 412.567 425.451 411.78 422.936 410.214L422.408 411.063ZM431.383 413.567V414.567C434.864 414.567 438.032 413.685 440.863 411.911L440.332 411.063L439.801 410.216C437.305 411.78 434.508 412.567 431.383 412.567V413.567ZM440.332 411.063L440.861 411.912C443.725 410.129 445.966 407.515 447.599 404.119L446.697 403.686L445.796 403.252C444.304 406.355 442.302 408.659 439.804 410.214L440.332 411.063ZM446.697 403.686L447.597 404.123C449.26 400.702 450.068 396.557 450.068 391.727H449.068H448.068C448.068 396.343 447.295 400.171 445.798 403.248L446.697 403.686ZM509.819 364.455H510.819V363.455H509.819V364.455ZM509.819 419V420H510.819V419H509.819ZM503.427 419L502.605 419.57L502.904 420H503.427V419ZM473.704 376.173L474.525 375.603L474.227 375.173H473.704V376.173ZM473.171 376.173V375.173H472.171V376.173H473.171ZM473.171 419V420H474.171V419H473.171ZM466.566 419H465.566V420H466.566V419ZM466.566 364.455V363.455H465.566V364.455H466.566ZM472.958 364.455L473.779 363.884L473.481 363.455H472.958V364.455ZM502.788 407.388L501.966 407.958L502.265 408.388H502.788V407.388ZM503.32 407.388V408.388H504.32V407.388H503.32ZM503.32 364.455V363.455H502.32V364.455H503.32ZM509.819 364.455H508.819V419H509.819H510.819V364.455H509.819ZM509.819 419V418H503.427V419V420H509.819V419ZM503.427 419L504.248 418.43L474.525 375.603L473.704 376.173L472.882 376.743L502.605 419.57L503.427 419ZM473.704 376.173V375.173H473.171V376.173V377.173H473.704V376.173ZM473.171 376.173H472.171V419H473.171H474.171V376.173H473.171ZM473.171 419V418H466.566V419V420H473.171V419ZM466.566 419H467.566V364.455H466.566H465.566V419H466.566ZM466.566 364.455V365.455H472.958V364.455V363.455H466.566V364.455ZM472.958 364.455L472.137 365.025L501.966 407.958L502.788 407.388L503.609 406.817L473.779 363.884L472.958 364.455ZM502.788 407.388V408.388H503.32V407.388V406.388H502.788V407.388ZM503.32 407.388H504.32V364.455H503.32H502.32V407.388H503.32ZM503.32 364.455V365.455H509.819V364.455V363.455H503.32V364.455ZM523.036 419H522.036V420H523.036V419ZM523.036 364.455V363.455H522.036V364.455H523.036ZM555.955 364.455H556.955V363.455H555.955V364.455ZM555.955 370.314V371.314H556.955V370.314H555.955ZM529.641 370.314V369.314H528.641V370.314H529.641ZM529.641 388.744H528.641V389.744H529.641V388.744ZM554.25 388.744H555.25V387.744H554.25V388.744ZM554.25 394.604V395.604H555.25V394.604H554.25ZM529.641 394.604V393.604H528.641V394.604H529.641ZM529.641 413.141H528.641V414.141H529.641V413.141ZM556.381 413.141H557.381V412.141H556.381V413.141ZM556.381 419V420H557.381V419H556.381ZM523.036 419H524.036V364.455H523.036H522.036V419H523.036ZM523.036 364.455V365.455H555.955V364.455V363.455H523.036V364.455ZM555.955 364.455H554.955V370.314H555.955H556.955V364.455H555.955ZM555.955 370.314V369.314H529.641V370.314V371.314H555.955V370.314ZM529.641 370.314H528.641V388.744H529.641H530.641V370.314H529.641ZM529.641 388.744V389.744H554.25V388.744V387.744H529.641V388.744ZM554.25 388.744H553.25V394.604H554.25H555.25V388.744H554.25ZM554.25 394.604V393.604H529.641V394.604V395.604H554.25V394.604ZM529.641 394.604H528.641V413.141H529.641H530.641V394.604H529.641ZM529.641 413.141V414.141H556.381V413.141V412.141H529.641V413.141ZM556.381 413.141H555.381V419H556.381H557.381V413.141H556.381ZM556.381 419V418H523.036V419V420H556.381V419ZM588.954 419H587.954V420H588.954V419ZM588.954 364.455V363.455H587.954V364.455H588.954ZM617.878 366.772L617.383 367.641L617.39 367.645L617.878 366.772ZM623.95 372.977L623.057 373.427V373.427L623.95 372.977ZM623.95 390.475L623.056 390.028L623.053 390.033L623.95 390.475ZM617.931 396.761L618.425 397.63L618.43 397.628L617.931 396.761ZM594.28 399.078H593.28V400.078H594.28V399.078ZM594.28 393.219V392.219H593.28V393.219H594.28ZM614.336 391.701L613.84 390.832V390.832L614.336 391.701ZM618.197 387.599L617.292 387.174L617.29 387.178L618.197 387.599ZM618.197 375.854L617.29 376.275L617.294 376.282L618.197 375.854ZM614.309 371.805L613.824 372.68L613.831 372.684L614.309 371.805ZM595.559 370.314V369.314H594.559V370.314H595.559ZM595.559 419V420H596.559V419H595.559ZM588.954 419H589.954V364.455H588.954H587.954V419H588.954ZM588.954 364.455V365.455H607.384V364.455V363.455H588.954V364.455ZM607.384 364.455V365.455C611.551 365.455 614.863 366.208 617.383 367.641L617.878 366.772L618.372 365.902C615.459 364.246 611.775 363.455 607.384 363.455V364.455ZM617.878 366.772L617.39 367.645C619.963 369.082 621.839 371.008 623.057 373.427L623.95 372.977L624.843 372.528C623.433 369.726 621.261 367.516 618.365 365.899L617.878 366.772ZM623.95 372.977L623.057 373.427C624.294 375.884 624.921 378.64 624.921 381.713H625.921H626.921C626.921 378.359 626.234 375.291 624.843 372.528L623.95 372.977ZM625.921 381.713H624.921C624.921 384.786 624.294 387.552 623.056 390.028L623.95 390.475L624.845 390.923C626.234 388.143 626.921 385.067 626.921 381.713H625.921ZM623.95 390.475L623.053 390.033C621.851 392.471 619.99 394.423 617.432 395.894L617.931 396.761L618.43 397.628C621.306 395.974 623.457 393.736 624.847 390.918L623.95 390.475ZM617.931 396.761L617.437 395.892C614.915 397.326 611.62 398.078 607.491 398.078V399.078V400.078C611.848 400.078 615.514 399.286 618.425 397.63L617.931 396.761ZM607.491 399.078V398.078H594.28V399.078V400.078H607.491V399.078ZM594.28 399.078H595.28V393.219H594.28H593.28V399.078H594.28ZM594.28 393.219V394.219H607.278V393.219V392.219H594.28V393.219ZM607.278 393.219V394.219C610.31 394.219 612.853 393.697 614.831 392.569L614.336 391.701L613.84 390.832C612.267 391.729 610.104 392.219 607.278 392.219V393.219ZM614.336 391.701L614.831 392.569C616.772 391.463 618.211 389.945 619.104 388.02L618.197 387.599L617.29 387.178C616.585 388.697 615.45 389.914 613.84 390.832L614.336 391.701ZM618.197 387.599L619.103 388.024C619.99 386.134 620.422 384.024 620.422 381.713H619.422H618.422C618.422 383.77 618.038 385.584 617.292 387.174L618.197 387.599ZM619.422 381.713H620.422C620.422 379.403 619.99 377.3 619.101 375.425L618.197 375.854L617.294 376.282C618.038 377.852 618.422 379.656 618.422 381.713H619.422ZM618.197 375.854L619.104 375.433C618.208 373.501 616.754 371.998 614.787 370.927L614.309 371.805L613.831 372.684C615.451 373.566 616.588 374.762 617.29 376.275L618.197 375.854ZM614.309 371.805L614.794 370.931C612.8 369.826 610.235 369.314 607.171 369.314V370.314V371.314C610.037 371.314 612.231 371.797 613.824 372.68L614.309 371.805ZM607.171 370.314V369.314H595.559V370.314V371.314H607.171V370.314ZM595.559 370.314H594.559V419H595.559H596.559V370.314H595.559ZM595.559 419V418H588.954V419V420H595.559V419ZM679.468 406.642L678.572 406.198V406.198L679.468 406.642ZM670.918 416.337L671.45 417.184V417.184L670.918 416.337ZM646.096 416.337L645.564 417.184V417.184L646.096 416.337ZM637.547 406.642L638.443 406.198V406.198L637.547 406.642ZM670.918 367.118L671.45 366.271V366.271L670.918 367.118ZM679.468 376.812L678.572 377.257V377.257L679.468 376.812ZM673.821 379.769L672.92 380.202L672.922 380.206L673.821 379.769ZM667.456 372.391L666.925 373.239L666.928 373.24L667.456 372.391ZM649.532 372.391L649.003 371.542L649.001 371.544L649.532 372.391ZM643.166 379.769L642.267 379.331L642.265 379.335L643.166 379.769ZM643.166 403.686L642.265 404.119L642.267 404.123L643.166 403.686ZM649.532 411.063L649.001 411.911L649.003 411.912L649.532 411.063ZM667.456 411.063L666.928 410.214L666.925 410.216L667.456 411.063ZM673.821 403.686L672.922 403.248L672.92 403.252L673.821 403.686ZM682.584 391.727H681.584C681.584 397.361 680.567 402.174 678.572 406.198L679.468 406.642L680.364 407.086C682.523 402.73 683.584 397.599 683.584 391.727H682.584ZM679.468 406.642L678.572 406.198C676.568 410.239 673.838 413.324 670.387 415.49L670.918 416.337L671.45 417.184C675.243 414.804 678.212 411.426 680.364 407.086L679.468 406.642ZM670.918 416.337L670.387 415.49C666.938 417.654 662.988 418.746 658.507 418.746V419.746V420.746C663.33 420.746 667.655 419.565 671.45 417.184L670.918 416.337ZM658.507 419.746V418.746C654.026 418.746 650.076 417.654 646.627 415.49L646.096 416.337L645.564 417.184C649.36 419.565 653.684 420.746 658.507 420.746V419.746ZM646.096 416.337L646.627 415.49C643.176 413.324 640.446 410.239 638.443 406.198L637.547 406.642L636.651 407.086C638.802 411.426 641.771 414.804 645.564 417.184L646.096 416.337ZM637.547 406.642L638.443 406.198C636.448 402.174 635.43 397.361 635.43 391.727H634.43H633.43C633.43 397.599 634.491 402.73 636.651 407.086L637.547 406.642ZM634.43 391.727H635.43C635.43 386.094 636.448 381.281 638.443 377.257L637.547 376.812L636.651 376.368C634.491 380.725 633.43 385.855 633.43 391.727H634.43ZM637.547 376.812L638.443 377.257C640.446 373.216 643.176 370.131 646.627 367.965L646.096 367.118L645.564 366.271C641.771 368.651 638.802 372.029 636.651 376.368L637.547 376.812ZM646.096 367.118L646.627 367.965C650.076 365.801 654.026 364.709 658.507 364.709V363.709V362.709C653.684 362.709 649.36 363.889 645.564 366.271L646.096 367.118ZM658.507 363.709V364.709C662.988 364.709 666.938 365.801 670.387 367.965L670.918 367.118L671.45 366.271C667.655 363.889 663.33 362.709 658.507 362.709V363.709ZM670.918 367.118L670.387 367.965C673.838 370.131 676.568 373.216 678.572 377.257L679.468 376.812L680.364 376.368C678.212 372.029 675.243 368.651 671.45 366.271L670.918 367.118ZM679.468 376.812L678.572 377.257C680.567 381.281 681.584 386.094 681.584 391.727H682.584H683.584C683.584 385.855 682.523 380.725 680.364 376.368L679.468 376.812ZM676.192 391.727H677.192C677.192 386.897 676.384 382.752 674.721 379.331L673.821 379.769L672.922 380.206C674.419 383.284 675.192 387.111 675.192 391.727H676.192ZM673.821 379.769L674.723 379.335C673.09 375.94 670.849 373.325 667.985 371.542L667.456 372.391L666.928 373.24C669.426 374.795 671.428 377.099 672.92 380.202L673.821 379.769ZM667.456 372.391L667.987 371.544C665.156 369.77 661.988 368.888 658.507 368.888V369.888V370.888C661.632 370.888 664.429 371.675 666.925 373.239L667.456 372.391ZM658.507 369.888V368.888C655.027 368.888 651.85 369.77 649.003 371.542L649.532 372.391L650.06 373.24C652.575 371.675 655.383 370.888 658.507 370.888V369.888ZM649.532 372.391L649.001 371.544C646.156 373.327 643.917 375.939 642.267 379.331L643.166 379.769L644.066 380.206C645.576 377.1 647.581 374.794 650.063 373.239L649.532 372.391ZM643.166 379.769L642.265 379.335C640.621 382.755 639.823 386.899 639.823 391.727H640.823H641.823C641.823 387.11 642.587 383.281 644.068 380.202L643.166 379.769ZM640.823 391.727H639.823C639.823 396.556 640.621 400.699 642.265 404.119L643.166 403.686L644.068 403.252C642.587 400.173 641.823 396.345 641.823 391.727H640.823ZM643.166 403.686L642.267 404.123C643.917 407.515 646.156 410.128 649.001 411.911L649.532 411.063L650.063 410.216C647.581 408.66 645.576 406.355 644.066 403.248L643.166 403.686ZM649.532 411.063L649.003 411.912C651.85 413.685 655.027 414.567 658.507 414.567V413.567V412.567C655.383 412.567 652.575 411.78 650.06 410.214L649.532 411.063ZM658.507 413.567V414.567C661.988 414.567 665.156 413.685 667.987 411.911L667.456 411.063L666.925 410.216C664.429 411.78 661.632 412.567 658.507 412.567V413.567ZM667.456 411.063L667.985 411.912C670.849 410.129 673.09 407.515 674.723 404.119L673.821 403.686L672.92 403.252C671.428 406.355 669.426 408.659 666.928 410.214L667.456 411.063ZM673.821 403.686L674.721 404.123C676.384 400.702 677.192 396.557 677.192 391.727H676.192H675.192C675.192 396.343 674.419 400.171 672.922 403.248L673.821 403.686ZM700.295 364.455H701.295V363.455H700.295V364.455ZM700.295 419V420H701.295V419H700.295ZM693.69 419H692.69V420H693.69V419ZM693.69 364.455V363.455H692.69V364.455H693.69ZM700.295 364.455H699.295V419H700.295H701.295V364.455H700.295ZM700.295 419V418H693.69V419V420H700.295V419ZM693.69 419H694.69V364.455H693.69H692.69V419H693.69ZM693.69 364.455V365.455H700.295V364.455V363.455H693.69V364.455ZM756.792 364.455H757.792V363.455H756.792V364.455ZM756.792 419V420H757.792V419H756.792ZM750.4 419L749.578 419.57L749.876 420H750.4V419ZM720.677 376.173L721.498 375.603L721.2 375.173H720.677V376.173ZM720.144 376.173V375.173H719.144V376.173H720.144ZM720.144 419V420H721.144V419H720.144ZM713.539 419H712.539V420H713.539V419ZM713.539 364.455V363.455H712.539V364.455H713.539ZM719.931 364.455L720.752 363.884L720.454 363.455H719.931V364.455ZM749.76 407.388L748.939 407.958L749.237 408.388H749.76V407.388ZM750.293 407.388V408.388H751.293V407.388H750.293ZM750.293 364.455V363.455H749.293V364.455H750.293ZM756.792 364.455H755.792V419H756.792H757.792V364.455H756.792ZM756.792 419V418H750.4V419V420H756.792V419ZM750.4 419L751.221 418.43L721.498 375.603L720.677 376.173L719.855 376.743L749.578 419.57L750.4 419ZM720.677 376.173V375.173H720.144V376.173V377.173H720.677V376.173ZM720.144 376.173H719.144V419H720.144H721.144V376.173H720.144ZM720.144 419V418H713.539V419V420H720.144V419ZM713.539 419H714.539V364.455H713.539H712.539V419H713.539ZM713.539 364.455V365.455H719.931V364.455V363.455H713.539V364.455ZM719.931 364.455L719.109 365.025L748.939 407.958L749.76 407.388L750.582 406.817L720.752 363.884L719.931 364.455ZM749.76 407.388V408.388H750.293V407.388V406.388H749.76V407.388ZM750.293 407.388H751.293V364.455H750.293H749.293V407.388H750.293ZM750.293 364.455V365.455H756.792V364.455V363.455H750.293V364.455ZM767.025 370.314H766.025V371.314H767.025V370.314ZM767.025 364.455V363.455H766.025V364.455H767.025ZM807.935 364.455H808.935V363.455H807.935V364.455ZM807.935 370.314V371.314H808.935V370.314H807.935ZM790.783 370.314V369.314H789.783V370.314H790.783ZM790.783 419V420H791.783V419H790.783ZM784.177 419H783.177V420H784.177V419ZM784.177 370.314H785.177V369.314H784.177V370.314ZM767.025 370.314H768.025V364.455H767.025H766.025V370.314H767.025ZM767.025 364.455V365.455H807.935V364.455V363.455H767.025V364.455ZM807.935 364.455H806.935V370.314H807.935H808.935V364.455H807.935ZM807.935 370.314V369.314H790.783V370.314V371.314H807.935V370.314ZM790.783 370.314H789.783V419H790.783H791.783V370.314H790.783ZM790.783 419V418H784.177V419V420H790.783V419ZM784.177 419H785.177V370.314H784.177H783.177V419H784.177ZM784.177 370.314V369.314H767.025V370.314V371.314H784.177V370.314ZM818.129 419H817.129V420H818.129V419ZM818.129 364.455V363.455H817.129V364.455H818.129ZM851.048 364.455H852.048V363.455H851.048V364.455ZM851.048 370.314V371.314H852.048V370.314H851.048ZM824.734 370.314V369.314H823.734V370.314H824.734ZM824.734 388.744H823.734V389.744H824.734V388.744ZM849.343 388.744H850.343V387.744H849.343V388.744ZM849.343 394.604V395.604H850.343V394.604H849.343ZM824.734 394.604V393.604H823.734V394.604H824.734ZM824.734 413.141H823.734V414.141H824.734V413.141ZM851.474 413.141H852.474V412.141H851.474V413.141ZM851.474 419V420H852.474V419H851.474ZM818.129 419H819.129V364.455H818.129H817.129V419H818.129ZM818.129 364.455V365.455H851.048V364.455V363.455H818.129V364.455ZM851.048 364.455H850.048V370.314H851.048H852.048V364.455H851.048ZM851.048 370.314V369.314H824.734V370.314V371.314H851.048V370.314ZM824.734 370.314H823.734V388.744H824.734H825.734V370.314H824.734ZM824.734 388.744V389.744H849.343V388.744V387.744H824.734V388.744ZM849.343 388.744H848.343V394.604H849.343H850.343V388.744H849.343ZM849.343 394.604V393.604H824.734V394.604V395.604H849.343V394.604ZM824.734 394.604H823.734V413.141H824.734H825.734V394.604H824.734ZM824.734 413.141V414.141H851.474V413.141V412.141H824.734V413.141ZM851.474 413.141H850.474V419H851.474H852.474V413.141H851.474ZM851.474 419V418H818.129V419V420H851.474V419ZM862.953 419H861.953V420H862.953V419ZM862.953 364.455V363.455H861.953V364.455H862.953ZM891.877 366.638L891.407 367.521L891.411 367.524L891.877 366.638ZM897.949 372.578L897.062 373.04V373.04L897.949 372.578ZM897.949 389.73L897.065 389.262V389.262L897.949 389.73ZM891.903 395.589L892.362 396.478L892.367 396.475L891.903 395.589ZM866.575 397.693H865.575V398.693H866.575V397.693ZM866.575 391.727V390.727H865.575V391.727H866.575ZM888.308 390.449L887.879 389.546L887.875 389.547L888.308 390.449ZM892.196 386.827L891.308 386.368L891.306 386.371L892.196 386.827ZM888.281 371.672L887.831 372.565L887.838 372.568L888.281 371.672ZM869.558 370.314V369.314H868.558V370.314H869.558ZM869.558 419V420H870.558V419H869.558ZM888.628 394.497L889.505 394.017L889.22 393.497H888.628V394.497ZM902.051 419V420H903.739L902.928 418.52L902.051 419ZM894.38 419L893.5 419.475L893.783 420H894.38V419ZM881.17 394.497V393.497H879.495L880.29 394.972L881.17 394.497ZM862.953 419H863.953V364.455H862.953H861.953V419H862.953ZM862.953 364.455V365.455H881.383V364.455V363.455H862.953V364.455ZM881.383 364.455V365.455C885.539 365.455 888.861 366.166 891.407 367.521L891.877 366.638L892.347 365.756C889.424 364.199 885.75 363.455 881.383 363.455V364.455ZM891.877 366.638L891.411 367.524C893.982 368.876 895.851 370.715 897.062 373.04L897.949 372.578L898.836 372.116C897.42 369.398 895.24 367.278 892.342 365.753L891.877 366.638ZM897.949 372.578L897.062 373.04C898.293 375.401 898.92 378.106 898.92 381.18H899.92H900.92C900.92 377.827 900.234 374.797 898.836 372.116L897.949 372.578ZM899.92 381.18H898.92C898.92 384.255 898.293 386.94 897.065 389.262L897.949 389.73L898.833 390.197C900.234 387.548 900.92 384.534 900.92 381.18H899.92ZM897.949 389.73L897.065 389.262C895.854 391.553 893.994 393.367 891.44 394.703L891.903 395.589L892.367 396.475C895.246 394.97 897.416 392.878 898.833 390.197L897.949 389.73ZM891.903 395.589L891.445 394.701C888.914 396.007 885.614 396.693 881.49 396.693V397.693V398.693C885.817 398.693 889.46 397.976 892.362 396.478L891.903 395.589ZM881.49 397.693V396.693H866.575V397.693V398.693H881.49V397.693ZM866.575 397.693H867.575V391.727H866.575H865.575V397.693H866.575ZM866.575 391.727V392.727H881.277V391.727V390.727H866.575V391.727ZM881.277 391.727V392.727C884.273 392.727 886.781 392.291 888.741 391.35L888.308 390.449L887.875 389.547C886.284 390.311 884.105 390.727 881.277 390.727V391.727ZM888.308 390.449L888.737 391.352C890.702 390.418 892.174 389.066 893.087 387.282L892.196 386.827L891.306 386.371C890.62 387.713 889.501 388.775 887.879 389.546L888.308 390.449ZM892.196 386.827L893.085 387.286C893.99 385.535 894.422 383.488 894.422 381.18H893.422H892.422C892.422 383.24 892.037 384.958 891.308 386.368L892.196 386.827ZM893.422 381.18H894.422C894.422 378.871 893.989 376.804 893.091 375.007L892.196 375.454L891.302 375.901C892.037 377.371 892.422 379.122 892.422 381.18H893.422ZM892.196 375.454L893.091 375.007C892.167 373.16 890.694 371.751 888.725 370.776L888.281 371.672L887.838 372.568C889.456 373.369 890.592 374.481 891.302 375.901L892.196 375.454ZM888.281 371.672L888.732 370.78C886.749 369.778 884.207 369.314 881.17 369.314V370.314V371.314C884.029 371.314 886.227 371.755 887.831 372.565L888.281 371.672ZM881.17 370.314V369.314H869.558V370.314V371.314H881.17V370.314ZM869.558 370.314H868.558V419H869.558H870.558V370.314H869.558ZM869.558 419V418H862.953V419V420H869.558V419ZM888.628 394.497L887.75 394.978L901.174 419.48L902.051 419L902.928 418.52L889.505 394.017L888.628 394.497ZM902.051 419V418H894.38V419V420H902.051V419ZM894.38 419L895.261 418.525L882.05 394.023L881.17 394.497L880.29 394.972L893.5 419.475L894.38 419ZM881.17 394.497V395.497H888.628V394.497V393.497H881.17V394.497ZM974.927 406.642L974.031 406.198V406.198L974.927 406.642ZM966.377 416.337L966.909 417.184V417.184L966.377 416.337ZM941.555 416.337L941.023 417.184V417.184L941.555 416.337ZM933.006 406.642L933.902 406.198V406.198L933.006 406.642ZM966.377 367.118L966.909 366.271V366.271L966.377 367.118ZM974.927 376.812L974.031 377.257V377.257L974.927 376.812ZM969.28 379.769L968.379 380.202L968.381 380.206L969.28 379.769ZM962.915 372.391L962.384 373.239L962.387 373.24L962.915 372.391ZM944.991 372.391L944.462 371.542L944.46 371.544L944.991 372.391ZM938.625 379.769L937.726 379.331L937.724 379.335L938.625 379.769ZM938.625 403.686L937.724 404.119L937.726 404.123L938.625 403.686ZM944.991 411.063L944.46 411.911L944.462 411.912L944.991 411.063ZM962.915 411.063L962.387 410.214L962.384 410.216L962.915 411.063ZM969.28 403.686L968.381 403.248L968.379 403.252L969.28 403.686ZM978.043 391.727H977.043C977.043 397.361 976.026 402.174 974.031 406.198L974.927 406.642L975.823 407.086C977.982 402.73 979.043 397.599 979.043 391.727H978.043ZM974.927 406.642L974.031 406.198C972.027 410.239 969.297 413.324 965.846 415.49L966.377 416.337L966.909 417.184C970.702 414.804 973.671 411.426 975.823 407.086L974.927 406.642ZM966.377 416.337L965.846 415.49C962.397 417.654 958.447 418.746 953.966 418.746V419.746V420.746C958.789 420.746 963.114 419.565 966.909 417.184L966.377 416.337ZM953.966 419.746V418.746C949.485 418.746 945.535 417.654 942.086 415.49L941.555 416.337L941.023 417.184C944.819 419.565 949.143 420.746 953.966 420.746V419.746ZM941.555 416.337L942.086 415.49C938.635 413.324 935.905 410.239 933.902 406.198L933.006 406.642L932.11 407.086C934.261 411.426 937.23 414.804 941.023 417.184L941.555 416.337ZM933.006 406.642L933.902 406.198C931.906 402.174 930.889 397.361 930.889 391.727H929.889H928.889C928.889 397.599 929.95 402.73 932.11 407.086L933.006 406.642ZM929.889 391.727H930.889C930.889 386.094 931.906 381.281 933.902 377.257L933.006 376.812L932.11 376.368C929.95 380.725 928.889 385.855 928.889 391.727H929.889ZM933.006 376.812L933.902 377.257C935.905 373.216 938.635 370.131 942.086 367.965L941.555 367.118L941.023 366.271C937.23 368.651 934.261 372.029 932.11 376.368L933.006 376.812ZM941.555 367.118L942.086 367.965C945.535 365.801 949.485 364.709 953.966 364.709V363.709V362.709C949.143 362.709 944.819 363.889 941.023 366.271L941.555 367.118ZM953.966 363.709V364.709C958.447 364.709 962.397 365.801 965.846 367.965L966.377 367.118L966.909 366.271C963.114 363.889 958.789 362.709 953.966 362.709V363.709ZM966.377 367.118L965.846 367.965C969.297 370.131 972.027 373.216 974.031 377.257L974.927 376.812L975.823 376.368C973.671 372.029 970.702 368.651 966.909 366.271L966.377 367.118ZM974.927 376.812L974.031 377.257C976.026 381.281 977.043 386.094 977.043 391.727H978.043H979.043C979.043 385.855 977.982 380.725 975.823 376.368L974.927 376.812ZM971.651 391.727H972.651C972.651 386.897 971.843 382.752 970.18 379.331L969.28 379.769L968.381 380.206C969.878 383.284 970.651 387.111 970.651 391.727H971.651ZM969.28 379.769L970.182 379.335C968.549 375.94 966.308 373.325 963.444 371.542L962.915 372.391L962.387 373.24C964.885 374.795 966.887 377.099 968.379 380.202L969.28 379.769ZM962.915 372.391L963.446 371.544C960.615 369.77 957.447 368.888 953.966 368.888V369.888V370.888C957.091 370.888 959.888 371.675 962.384 373.239L962.915 372.391ZM953.966 369.888V368.888C950.486 368.888 947.309 369.77 944.462 371.542L944.991 372.391L945.519 373.24C948.034 371.675 950.841 370.888 953.966 370.888V369.888ZM944.991 372.391L944.46 371.544C941.615 373.327 939.376 375.939 937.726 379.331L938.625 379.769L939.525 380.206C941.035 377.1 943.04 374.794 945.522 373.239L944.991 372.391ZM938.625 379.769L937.724 379.335C936.08 382.755 935.281 386.899 935.281 391.727H936.281H937.281C937.281 387.11 938.046 383.281 939.526 380.202L938.625 379.769ZM936.281 391.727H935.281C935.281 396.556 936.08 400.699 937.724 404.119L938.625 403.686L939.526 403.252C938.046 400.173 937.281 396.345 937.281 391.727H936.281ZM938.625 403.686L937.726 404.123C939.376 407.515 941.615 410.128 944.46 411.911L944.991 411.063L945.522 410.216C943.04 408.66 941.035 406.355 939.525 403.248L938.625 403.686ZM944.991 411.063L944.462 411.912C947.309 413.685 950.486 414.567 953.966 414.567V413.567V412.567C950.841 412.567 948.034 411.78 945.519 410.214L944.991 411.063ZM953.966 413.567V414.567C957.447 414.567 960.615 413.685 963.446 411.911L962.915 411.063L962.384 410.216C959.888 411.78 957.091 412.567 953.966 412.567V413.567ZM962.915 411.063L963.444 411.912C966.308 410.129 968.549 407.515 970.182 404.119L969.28 403.686L968.379 403.252C966.887 406.355 964.885 408.659 962.387 410.214L962.915 411.063ZM969.28 403.686L970.18 404.123C971.843 400.702 972.651 396.557 972.651 391.727H971.651H970.651C970.651 396.343 969.878 400.171 968.381 403.248L969.28 403.686ZM989.149 419H988.149V420H989.149V419ZM989.149 364.455V363.455H988.149V364.455H989.149ZM1021.86 364.455H1022.86V363.455H1021.86V364.455ZM1021.86 370.314V371.314H1022.86V370.314H1021.86ZM995.754 370.314V369.314H994.754V370.314H995.754ZM995.754 388.744H994.754V389.744H995.754V388.744ZM1019.4 388.744H1020.4V387.744H1019.4V388.744ZM1019.4 394.604V395.604H1020.4V394.604H1019.4ZM995.754 394.604V393.604H994.754V394.604H995.754ZM995.754 419V420H996.754V419H995.754ZM989.149 419H990.149V364.455H989.149H988.149V419H989.149ZM989.149 364.455V365.455H1021.86V364.455V363.455H989.149V364.455ZM1021.86 364.455H1020.86V370.314H1021.86H1022.86V364.455H1021.86ZM1021.86 370.314V369.314H995.754V370.314V371.314H1021.86V370.314ZM995.754 370.314H994.754V388.744H995.754H996.754V370.314H995.754ZM995.754 388.744V389.744H1019.4V388.744V387.744H995.754V388.744ZM1019.4 388.744H1018.4V394.604H1019.4H1020.4V388.744H1019.4ZM1019.4 394.604V393.604H995.754V394.604V395.604H1019.4V394.604ZM995.754 394.604H994.754V419H995.754H996.754V394.604H995.754ZM995.754 419V418H989.149V419V420H995.754V419ZM1056.5 419V420H1057.2L1057.44 419.335L1056.5 419ZM1049.57 419L1048.64 418.655L1048.14 420H1049.57V419ZM1069.6 364.455V363.455H1068.9L1068.66 364.11L1069.6 364.455ZM1076.42 364.455L1077.36 364.11L1077.12 363.455H1076.42V364.455ZM1096.45 419V420H1097.88L1097.39 418.655L1096.45 419ZM1089.52 419L1088.58 419.335L1088.82 420H1089.52V419ZM1073.22 373.084L1074.17 372.749L1073.93 372.084H1073.22V373.084ZM1072.8 373.084V372.084H1072.09L1071.86 372.749L1072.8 373.084ZM1059.06 397.693V396.693H1058.06V397.693H1059.06ZM1086.97 397.693H1087.97V396.693H1086.97V397.693ZM1086.97 403.553V404.553H1087.97V403.553H1086.97ZM1059.06 403.553H1058.06V404.553H1059.06V403.553ZM1056.5 419V418H1049.57V419V420H1056.5V419ZM1049.57 419L1050.51 419.345L1070.54 364.799L1069.6 364.455L1068.66 364.11L1048.64 418.655L1049.57 419ZM1069.6 364.455V365.455H1076.42V364.455V363.455H1069.6V364.455ZM1076.42 364.455L1075.48 364.799L1095.51 419.345L1096.45 419L1097.39 418.655L1077.36 364.11L1076.42 364.455ZM1096.45 419V418H1089.52V419V420H1096.45V419ZM1089.52 419L1090.47 418.665L1074.17 372.749L1073.22 373.084L1072.28 373.418L1088.58 419.335L1089.52 419ZM1073.22 373.084V372.084H1072.8V373.084V374.084H1073.22V373.084ZM1072.8 373.084L1071.86 372.749L1055.56 418.665L1056.5 419L1057.44 419.335L1073.74 373.418L1072.8 373.084ZM1059.06 397.693V398.693H1086.97V397.693V396.693H1059.06V397.693ZM1086.97 397.693H1085.97V403.553H1086.97H1087.97V397.693H1086.97ZM1086.97 403.553V402.553H1059.06V403.553V404.553H1086.97V403.553ZM1059.06 403.553H1060.06V397.693H1059.06H1058.06V403.553H1059.06ZM1104.94 419H1103.94V420H1104.94V419ZM1104.94 364.455V363.455H1103.94V364.455H1104.94ZM1111.55 364.455H1112.55V363.455H1111.55V364.455ZM1111.55 413.141H1110.55V414.141H1111.55V413.141ZM1136.91 413.141H1137.91V412.141H1136.91V413.141ZM1136.91 419V420H1137.91V419H1136.91ZM1104.94 419H1105.94V364.455H1104.94H1103.94V419H1104.94ZM1104.94 364.455V365.455H1111.55V364.455V363.455H1104.94V364.455ZM1111.55 364.455H1110.55V413.141H1111.55H1112.55V364.455H1111.55ZM1111.55 413.141V414.141H1136.91V413.141V412.141H1111.55V413.141ZM1136.91 413.141H1135.91V419H1136.91H1137.91V413.141H1136.91ZM1136.91 419V418H1104.94V419V420H1136.91V419ZM1147.13 419H1146.13V420H1147.13V419ZM1147.13 364.455V363.455H1146.13V364.455H1147.13ZM1153.74 364.455H1154.74V363.455H1153.74V364.455ZM1153.74 413.141H1152.74V414.141H1153.74V413.141ZM1179.09 413.141H1180.09V412.141H1179.09V413.141ZM1179.09 419V420H1180.09V419H1179.09ZM1147.13 419H1148.13V364.455H1147.13H1146.13V419H1147.13ZM1147.13 364.455V365.455H1153.74V364.455V363.455H1147.13V364.455ZM1153.74 364.455H1152.74V413.141H1153.74H1154.74V364.455H1153.74ZM1153.74 413.141V414.141H1179.09V413.141V412.141H1153.74V413.141ZM1179.09 413.141H1178.09V419H1179.09H1180.09V413.141H1179.09ZM1179.09 419V418H1147.13V419V420H1179.09V419ZM1207.43 370.314H1206.43V371.314H1207.43V370.314ZM1207.43 364.455V363.455H1206.43V364.455H1207.43ZM1248.34 364.455H1249.34V363.455H1248.34V364.455ZM1248.34 370.314V371.314H1249.34V370.314H1248.34ZM1231.19 370.314V369.314H1230.19V370.314H1231.19ZM1231.19 419V420H1232.19V419H1231.19ZM1224.58 419H1223.58V420H1224.58V419ZM1224.58 370.314H1225.58V369.314H1224.58V370.314ZM1207.43 370.314H1208.43V364.455H1207.43H1206.43V370.314H1207.43ZM1207.43 364.455V365.455H1248.34V364.455V363.455H1207.43V364.455ZM1248.34 364.455H1247.34V370.314H1248.34H1249.34V364.455H1248.34ZM1248.34 370.314V369.314H1231.19V370.314V371.314H1248.34V370.314ZM1231.19 370.314H1230.19V419H1231.19H1232.19V370.314H1231.19ZM1231.19 419V418H1224.58V419V420H1231.19V419ZM1224.58 419H1225.58V370.314H1224.58H1223.58V419H1224.58ZM1224.58 370.314V369.314H1207.43V370.314V371.314H1224.58V370.314ZM1265.14 364.455H1266.14V363.455H1265.14V364.455ZM1265.14 419V420H1266.14V419H1265.14ZM1258.53 419H1257.53V420H1258.53V419ZM1258.53 364.455V363.455H1257.53V364.455H1258.53ZM1265.14 364.455H1264.14V419H1265.14H1266.14V364.455H1265.14ZM1265.14 419V418H1258.53V419V420H1265.14V419ZM1258.53 419H1259.53V364.455H1258.53H1257.53V419H1258.53ZM1258.53 364.455V365.455H1265.14V364.455V363.455H1258.53V364.455ZM1278.38 364.455V363.455H1277.38V364.455H1278.38ZM1286.27 364.455L1287.19 364.076L1286.94 363.455H1286.27V364.455ZM1304.8 409.732L1303.88 410.11L1304.13 410.732H1304.8V409.732ZM1305.44 409.732V410.732H1306.11L1306.37 410.11L1305.44 409.732ZM1323.98 364.455V363.455H1323.31L1323.05 364.076L1323.98 364.455ZM1331.86 364.455H1332.86V363.455H1331.86V364.455ZM1331.86 419V420H1332.86V419H1331.86ZM1325.68 419H1324.68V420H1325.68V419ZM1325.68 377.558H1326.68V376.558H1325.68V377.558ZM1325.15 377.558V376.558H1324.48L1324.23 377.178L1325.15 377.558ZM1308.11 419V420H1308.78L1309.03 419.38L1308.11 419ZM1302.14 419L1301.21 419.38L1301.47 420H1302.14V419ZM1285.09 377.558L1286.02 377.178L1285.76 376.558H1285.09V377.558ZM1284.56 377.558V376.558H1283.56V377.558H1284.56ZM1284.56 419V420H1285.56V419H1284.56ZM1278.38 419H1277.38V420H1278.38V419ZM1278.38 364.455V365.455H1286.27V364.455V363.455H1278.38V364.455ZM1286.27 364.455L1285.34 364.833L1303.88 410.11L1304.8 409.732L1305.73 409.353L1287.19 364.076L1286.27 364.455ZM1304.8 409.732V410.732H1305.44V409.732V408.732H1304.8V409.732ZM1305.44 409.732L1306.37 410.11L1324.9 364.833L1323.98 364.455L1323.05 364.076L1304.52 409.353L1305.44 409.732ZM1323.98 364.455V365.455H1331.86V364.455V363.455H1323.98V364.455ZM1331.86 364.455H1330.86V419H1331.86H1332.86V364.455H1331.86ZM1331.86 419V418H1325.68V419V420H1331.86V419ZM1325.68 419H1326.68V377.558H1325.68H1324.68V419H1325.68ZM1325.68 377.558V376.558H1325.15V377.558V378.558H1325.68V377.558ZM1325.15 377.558L1324.23 377.178L1307.18 418.62L1308.11 419L1309.03 419.38L1326.08 377.939L1325.15 377.558ZM1308.11 419V418H1302.14V419V420H1308.11V419ZM1302.14 419L1303.06 418.62L1286.02 377.178L1285.09 377.558L1284.17 377.939L1301.21 419.38L1302.14 419ZM1285.09 377.558V376.558H1284.56V377.558V378.558H1285.09V377.558ZM1284.56 377.558H1283.56V419H1284.56H1285.56V377.558H1284.56ZM1284.56 419V418H1278.38V419V420H1284.56V419ZM1278.38 419H1279.38V364.455H1278.38H1277.38V419H1278.38ZM1345.11 419H1344.11V420H1345.11V419ZM1345.11 364.455V363.455H1344.11V364.455H1345.11ZM1378.03 364.455H1379.03V363.455H1378.03V364.455ZM1378.03 370.314V371.314H1379.03V370.314H1378.03ZM1351.71 370.314V369.314H1350.71V370.314H1351.71ZM1351.71 388.744H1350.71V389.744H1351.71V388.744ZM1376.32 388.744H1377.32V387.744H1376.32V388.744ZM1376.32 394.604V395.604H1377.32V394.604H1376.32ZM1351.71 394.604V393.604H1350.71V394.604H1351.71ZM1351.71 413.141H1350.71V414.141H1351.71V413.141ZM1378.45 413.141H1379.45V412.141H1378.45V413.141ZM1378.45 419V420H1379.45V419H1378.45ZM1345.11 419H1346.11V364.455H1345.11H1344.11V419H1345.11ZM1345.11 364.455V365.455H1378.03V364.455V363.455H1345.11V364.455ZM1378.03 364.455H1377.03V370.314H1378.03H1379.03V364.455H1378.03ZM1378.03 370.314V369.314H1351.71V370.314V371.314H1378.03V370.314ZM1351.71 370.314H1350.71V388.744H1351.71H1352.71V370.314H1351.71ZM1351.71 388.744V389.744H1376.32V388.744V387.744H1351.71V388.744ZM1376.32 388.744H1375.32V394.604H1376.32H1377.32V388.744H1376.32ZM1376.32 394.604V393.604H1351.71V394.604V395.604H1376.32V394.604ZM1351.71 394.604H1350.71V413.141H1351.71H1352.71V394.604H1351.71ZM1351.71 413.141V414.141H1378.45V413.141V412.141H1351.71V413.141ZM1378.45 413.141H1377.45V419H1378.45H1379.45V413.141H1378.45ZM1378.45 419V418H1345.11V419V420H1378.45V419Z" fill="#192335" mask="url(#path-21-outside-1_745_237)"/>
</svg>
